<?xml version="1.0" encoding="UTF-8" standalone="no"?>
<svg
   xmlns:dc="http://purl.org/dc/elements/1.1/"
   xmlns:cc="http://creativecommons.org/ns#"
   xmlns:rdf="http://www.w3.org/1999/02/22-rdf-syntax-ns#"
   xmlns:svg="http://www.w3.org/2000/svg"
   xmlns="http://www.w3.org/2000/svg"
   xmlns:sodipodi="http://sodipodi.sourceforge.net/DTD/sodipodi-0.dtd"
   xmlns:inkscape="http://www.inkscape.org/namespaces/inkscape"
   width="24"
   height="24"
   viewBox="0 0 24 24"
   version="1.1"
   id="svg44"
   sodipodi:docname="instagram.svg"
   inkscape:version="0.92.4 (5da689c313, 2019-01-14)">
  <metadata
     id="metadata50">
    <rdf:RDF>
      <cc:Work
         rdf:about="">
        <dc:format>image/svg+xml</dc:format>
        <dc:type
           rdf:resource="http://purl.org/dc/dcmitype/StillImage" />
      </cc:Work>
    </rdf:RDF>
  </metadata>
  <defs
     id="defs48" />
  <sodipodi:namedview
     pagecolor="#ffffff"
     bordercolor="#666666"
     borderopacity="1"
     objecttolerance="10"
     gridtolerance="10"
     guidetolerance="10"
     inkscape:pageopacity="0"
     inkscape:pageshadow="2"
     inkscape:window-width="1920"
     inkscape:window-height="1017"
     id="namedview46"
     showgrid="false"
     inkscape:zoom="9.8333333"
     inkscape:cx="12"
     inkscape:cy="12"
     inkscape:window-x="-4"
     inkscape:window-y="-4"
     inkscape:window-maximized="1"
     inkscape:current-layer="svg44" />
  <path
     d="M12 2.163c3.204 0 3.584.012 4.85.07 3.252.148 4.771 1.691 4.919 4.919.058 1.265.069 1.645.069 4.849 0 3.205-.012 3.584-.069 4.849-.149 3.225-1.664 4.771-4.919 4.919-1.266.058-1.644.07-4.85.07-3.204 0-3.584-.012-4.849-.07-3.26-.149-4.771-1.699-4.919-4.92-.058-1.265-.07-1.644-.07-4.849 0-3.204.013-3.583.07-4.849.149-3.227 1.664-4.771 4.919-4.919 1.266-.057 1.645-.069 4.849-.069zm0-2.163c-3.259 0-3.667.014-4.947.072-4.358.2-6.78 2.618-6.98 6.98-.059 1.281-.073 1.689-.073 4.948 0 3.259.014 3.668.072 4.948.2 4.358 2.618 6.78 6.98 6.98 1.281.058 1.689.072 4.948.072 3.259 0 3.668-.014 4.948-.072 4.354-.2 6.782-2.618 6.979-6.98.059-1.28.073-1.689.073-4.948 0-3.259-.014-3.667-.072-4.947-.196-4.354-2.617-6.78-6.979-6.98-1.281-.059-1.69-.073-4.949-.073zm0 5.838c-3.403 0-6.162 2.759-6.162 6.162s2.759 6.163 6.162 6.163 6.162-2.759 6.162-6.163c0-3.403-2.759-6.162-6.162-6.162zm0 10.162c-2.209 0-4-1.79-4-4 0-2.209 1.791-4 4-4s4 1.791 4 4c0 2.21-1.791 4-4 4zm6.406-11.845c-.796 0-1.441.645-1.441 1.44s.645 1.44 1.441 1.44c.795 0 1.439-.645 1.439-1.44s-.644-1.44-1.439-1.44z"
     id="path42" />
  <path
     style="fill:#ffffff;stroke-width:0.10169491"
     d="M 6.7220339,23.84963 C 4.6561149,23.685607 3.0484959,22.993501 1.9123913,21.779002 0.88526553,20.681001 0.35437654,19.344837 0.16281569,17.375596 0.03351789,16.046418 0.03458001,8.0195594 0.1642346,6.6523206 0.54119257,2.6772082 2.6115288,0.58060333 6.5694915,0.16579285 7.7977691,0.03706441 16.059477,0.03478825 17.375596,0.16281569 c 2.117143,0.20594822 3.383872,0.7407026 4.551898,1.92160061 0.420632,0.4252659 0.886875,1.003029 1.036099,1.2839179 0.443591,0.8349899 0.791445,2.2159799 0.895987,3.5570895 0.124631,1.5988302 0.122479,8.4956283 -0.0032,10.1116783 -0.176248,2.267104 -0.748522,3.726884 -1.92048,4.898842 -1.172818,1.172818 -2.650863,1.753511 -4.891876,1.921919 -1.506515,0.113211 -8.8663519,0.107341 -10.3220341,-0.0082 z M 18.016761,21.673754 c 2.068624,-0.39415 3.262262,-1.576399 3.647543,-3.612737 C 22.022262,16.169084 21.948016,6.7011855 21.565417,5.4508475 21.021754,3.6741492 20.021312,2.7629716 18.162712,2.3517476 17.549209,2.2160073 16.584322,2.1720512 13.230508,2.1270574 7.0266688,2.0438284 5.3151087,2.2118521 4.0881393,3.0245629 3.4630372,3.4386133 2.8793242,4.1773684 2.6113401,4.8936198 2.1888776,6.0227524 2.1467161,6.6726561 2.1463667,12.061017 c -3.661e-4,5.644351 0.047511,6.197717 0.6411051,7.409995 0.7790479,1.591023 2.1204953,2.230781 4.9515113,2.361454 2.6895659,0.124145 9.3315649,0.02158 10.2777779,-0.158712 z"
     id="path52"
     inkscape:connector-curvature="0" />
  <path
     style="fill:#ffffff;stroke-width:0.10169491"
     d="M 11.247458,18.050927 C 8.8436058,17.770609 6.7314928,15.914741 6.0508091,13.484746 5.8368434,12.720902 5.8806626,11.106389 6.1377517,10.281356 6.74967,8.3176291 8.3176291,6.7496701 10.281356,6.1377517 c 0.825033,-0.2570891 2.439546,-0.3009083 3.20339,-0.086943 0.903105,0.2529756 1.924986,0.8239766 2.593086,1.4489513 1.349988,1.2628479 1.998281,2.713018 1.99363,4.459562 -0.0048,1.785135 -0.568716,3.134064 -1.828218,4.372881 -1.370245,1.347742 -3.093398,1.940566 -4.995786,1.718724 z m 2.442728,-2.392825 c 0.844718,-0.395291 1.569533,-1.119002 1.972681,-1.969675 0.285095,-0.601574 0.313404,-0.753168 0.313404,-1.678258 0,-0.932695 -0.0269,-1.073742 -0.324725,-1.702449 C 15.251201,9.4625873 14.54624,8.7389052 13.736765,8.3420923 13.176472,8.0674306 13.041121,8.0440678 12.010169,8.0440678 c -1.031517,0 -1.166167,0.023275 -1.728813,0.2988378 -0.7781166,0.3810919 -1.5560932,1.1591929 -1.9381401,1.9384504 -0.2759574,0.562868 -0.2991481,0.69689 -0.2991481,1.728813 0,1.030952 0.023363,1.166303 0.2980245,1.726596 0.4976105,1.015096 1.3907819,1.769588 2.5494327,2.153594 0.246879,0.08182 0.747261,0.123333 1.272946,0.1056 0.713732,-0.02407 0.982239,-0.08353 1.525715,-0.337857 z"
     id="path54"
     inkscape:connector-curvature="0" />
  <path
     style="fill:#ffffff;stroke-width:0.10169491"
     d="M 17.783359,6.8310407 C 17.105749,6.5250354 16.834695,5.5412405 17.243341,4.8710388 17.796034,3.9645917 19.180193,4.044328 19.637952,5.0089837 20.182065,6.1556153 18.9557,7.3604645 17.783359,6.8310407 Z"
     id="path56"
     inkscape:connector-curvature="0" />
</svg>
