<?xml version="1.0" encoding="UTF-8" standalone="no"?>
<svg
   xmlns:dc="http://purl.org/dc/elements/1.1/"
   xmlns:cc="http://creativecommons.org/ns#"
   xmlns:rdf="http://www.w3.org/1999/02/22-rdf-syntax-ns#"
   xmlns:svg="http://www.w3.org/2000/svg"
   xmlns="http://www.w3.org/2000/svg"
   xmlns:sodipodi="http://sodipodi.sourceforge.net/DTD/sodipodi-0.dtd"
   xmlns:inkscape="http://www.inkscape.org/namespaces/inkscape"
   width="24"
   height="24"
   viewBox="0 0 24 24"
   version="1.1"
   id="svg44"
   sodipodi:docname="instagram2.svg"
   inkscape:version="0.92.4 (5da689c313, 2019-01-14)">
  <metadata
     id="metadata50">
    <rdf:RDF>
      <cc:Work
         rdf:about="">
        <dc:format>image/svg+xml</dc:format>
        <dc:type
           rdf:resource="http://purl.org/dc/dcmitype/StillImage" />
        <dc:title></dc:title>
      </cc:Work>
    </rdf:RDF>
  </metadata>
  <defs
     id="defs48" />
  <sodipodi:namedview
     pagecolor="#ffffff"
     bordercolor="#666666"
     borderopacity="1"
     objecttolerance="10"
     gridtolerance="10"
     guidetolerance="10"
     inkscape:pageopacity="0"
     inkscape:pageshadow="2"
     inkscape:window-width="1920"
     inkscape:window-height="1017"
     id="namedview46"
     showgrid="false"
     inkscape:zoom="19.666667"
     inkscape:cx="14.803793"
     inkscape:cy="5.2178296"
     inkscape:window-x="-4"
     inkscape:window-y="-4"
     inkscape:window-maximized="1"
     inkscape:current-layer="svg44" />
  <path
     d="m 12.381356,5.5309704 c 1.921042,0 2.148881,0.00727 2.907945,0.042415 1.949822,0.089678 2.860578,1.0246314 2.949315,2.9805805 0.03478,0.7665042 0.04137,0.9967585 0.04137,2.9381651 0,1.942013 -0.0072,2.171661 -0.04137,2.938166 -0.08934,1.954131 -0.997695,2.890902 -2.949315,2.98058 -0.759064,0.03514 -0.985704,0.04242 -2.907945,0.04242 -1.921043,0 -2.148882,-0.0073 -2.9073458,-0.04242 -1.954618,-0.09028 -2.860578,-1.029479 -2.949315,-2.981186 -0.03478,-0.766505 -0.04197,-0.996153 -0.04197,-2.938166 0,-1.9414066 0.0078,-2.1710549 0.04197,-2.938165 0.08934,-1.9553432 0.997695,-2.8909026 2.949315,-2.9805805 0.7590638,-0.034538 0.9863028,-0.041809 2.9073458,-0.041809 z m 0,-1.3106314 c -1.954019,0 -2.198646,0.00848 -2.9661038,0.043627 -2.612953,0.1211865 -4.0651271,1.5863305 -4.1850424,4.2294068 -0.035375,0.7761991 -0.043769,1.0234195 -0.043769,2.9981521 0,1.974733 0.00839,2.22256 0.04317,2.998153 0.1199153,2.640652 1.5696915,4.10822 4.1850425,4.229407 0.7680578,0.03514 1.0126848,0.04363 2.9667028,0.04363 1.954019,0 2.199246,-0.0085 2.966703,-0.04363 2.610555,-0.121187 4.066326,-1.586331 4.184443,-4.229407 0.03537,-0.775593 0.04377,-1.02342 0.04377,-2.998153 0,-1.9747326 -0.0084,-2.221953 -0.04317,-2.9975462 C 19.415585,5.85575 17.96401,4.3857585 15.348659,4.264572 14.580602,4.228822 14.335375,4.220339 12.381356,4.220339 Z m 0,3.5374322 c -2.040358,0 -3.6945888,1.6717669 -3.6945888,3.7337538 0,2.061988 1.6542308,3.734361 3.6945888,3.734361 2.040358,0 3.694589,-1.671767 3.694589,-3.734361 0,-2.0619869 -1.654231,-3.7337538 -3.694589,-3.7337538 z m 0,6.1574828 c -1.324464,0 -2.3983048,-1.084618 -2.3983048,-2.423729 0,-1.338504 1.0738408,-2.4237284 2.3983048,-2.4237284 1.324464,0 2.398305,1.0852244 2.398305,2.4237284 0,1.339111 -1.073841,2.423729 -2.398305,2.423729 z m 3.840885,-7.1772667 c -0.477262,0 -0.863989,0.3908263 -0.863989,0.8725424 0,0.4817161 0.386727,0.8725423 0.863989,0.8725423 0.476663,0 0.862791,-0.3908262 0.862791,-0.8725423 0,-0.4817161 -0.386128,-0.8725424 -0.862791,-0.8725424 z"
     id="path42"
     inkscape:connector-curvature="0"
     style="stroke-width:0.60274583" />
  <path
     style="fill:#ffffff;stroke-width:0.06129619"
     d="M 9.2168132,18.671598 C 7.9781372,18.572211 7.0142462,18.152842 6.3330652,17.416938 5.7172252,16.751623 5.3989165,15.941999 5.2840612,14.748772 5.2065373,13.94338 5.2071741,9.0796483 5.2849119,8.2511943 5.510927,5.8425457 6.7522512,4.5721452 9.1253522,4.3207982 c 0.736446,-0.078001 5.6899698,-0.07938 6.4790838,-0.0018 1.269388,0.1247907 2.028889,0.4488156 2.72921,1.1643598 0.252201,0.2576823 0.531749,0.6077675 0.62122,0.7779672 0.265967,0.5059472 0.474532,1.3427335 0.537213,2.155355 0.07473,0.9687827 0.07343,5.1477748 -0.0019,6.1269918 -0.105674,1.373711 -0.448796,2.258239 -1.151474,2.968366 -0.703194,0.710648 -1.589395,1.062509 -2.933053,1.164552 -0.903271,0.0686 -5.316054,0.06504 -6.1888468,-0.005 z m 6.7720498,-1.318434 c 1.240298,-0.238828 1.955975,-0.95519 2.18698,-2.189073 C 18.390466,14.017708 18.34595,8.2808031 18.116553,7.523183 17.790585,6.4466243 17.190744,5.8945125 16.076372,5.6453386 15.70853,5.5630892 15.130006,5.5364548 13.119139,5.5091916 9.3994642,5.4587604 8.3732542,5.5605714 7.6375922,6.0530191 7.2627952,6.3039055 6.9128152,6.751541 6.7521382,7.1855408 c -0.253298,0.6841778 -0.278577,1.0779754 -0.278787,4.3429572 -2.19e-4,3.420094 0.02849,3.755396 0.384391,4.489954 0.467099,0.964052 1.271399,1.351702 2.968809,1.430881 1.6125998,0.07522 5.5949848,0.01308 6.1623118,-0.09617 z"
     id="path52"
     inkscape:connector-curvature="0" />
  <path
     style="fill:#ffffff;stroke-width:0.06129619"
     d="M 11.930149,15.157977 C 10.488857,14.988123 9.2224842,13.863593 8.8143622,12.391181 8.6860732,11.928343 8.7123462,10.950058 8.8664912,10.450144 9.2333822,9.2602583 10.173494,8.3101815 11.350898,7.9394004 c 0.49467,-0.1557786 1.462693,-0.18233 1.920676,-0.052682 0.541481,0.1532861 1.154176,0.499274 1.554753,0.8779663 0.809421,0.7652002 1.198122,1.6439053 1.195333,2.7021923 -0.0029,1.081671 -0.340988,1.89903 -1.096156,2.649669 -0.821566,0.816641 -1.854728,1.175852 -2.995355,1.041431 z m 1.464602,-1.44989 c 0.506473,-0.239519 0.941055,-0.678039 1.182773,-1.193489 0.170936,-0.364513 0.187909,-0.456369 0.187909,-1.016911 0,-0.56515 -0.01613,-0.650615 -0.194697,-1.031569 C 14.330699,9.9540254 13.908021,9.5155231 13.422679,9.2750814 13.08674,9.108655 13.005587,9.0944987 12.387453,9.0944987 c -0.618473,0 -0.699206,0.014103 -1.036555,0.1810755 -0.466541,0.2309158 -0.932997,0.7023923 -1.162063,1.1745698 -0.165458,0.341059 -0.179362,0.422268 -0.179362,1.047543 0,0.624687 0.01401,0.706701 0.178688,1.0462 0.298356,0.61508 0.83388,1.072251 1.528579,1.304932 0.148023,0.04958 0.44804,0.07473 0.763229,0.06399 0.427936,-0.01459 0.588927,-0.05061 0.914782,-0.204719 z"
     id="path54"
     inkscape:connector-curvature="0" />
  <path
     style="fill:#ffffff;stroke-width:0.06129619"
     d="M 15.848921,8.3594865 C 15.442642,8.1740681 15.280124,7.5779551 15.525139,7.1718583 c 0.331381,-0.5492455 1.16129,-0.5009307 1.435752,0.083585 0.326237,0.694781 -0.409063,1.424838 -1.11197,1.1040432 z"
     id="path56"
     inkscape:connector-curvature="0" />
</svg>
