<?xml version="1.0" encoding="UTF-8" standalone="no"?>
<svg
   xmlns:dc="http://purl.org/dc/elements/1.1/"
   xmlns:cc="http://creativecommons.org/ns#"
   xmlns:rdf="http://www.w3.org/1999/02/22-rdf-syntax-ns#"
   xmlns:svg="http://www.w3.org/2000/svg"
   xmlns="http://www.w3.org/2000/svg"
   xmlns:sodipodi="http://sodipodi.sourceforge.net/DTD/sodipodi-0.dtd"
   xmlns:inkscape="http://www.inkscape.org/namespaces/inkscape"
   width="24"
   height="24"
   viewBox="0 0 24 24"
   version="1.1"
   id="svg70"
   sodipodi:docname="vk.svg"
   inkscape:version="0.92.4 (5da689c313, 2019-01-14)">
  <metadata
     id="metadata76">
    <rdf:RDF>
      <cc:Work
         rdf:about="">
        <dc:format>image/svg+xml</dc:format>
        <dc:type
           rdf:resource="http://purl.org/dc/dcmitype/StillImage" />
      </cc:Work>
    </rdf:RDF>
  </metadata>
  <defs
     id="defs74" />
  <sodipodi:namedview
     pagecolor="#ffffff"
     bordercolor="#666666"
     borderopacity="1"
     objecttolerance="10"
     gridtolerance="10"
     guidetolerance="10"
     inkscape:pageopacity="0"
     inkscape:pageshadow="2"
     inkscape:window-width="1920"
     inkscape:window-height="1017"
     id="namedview72"
     showgrid="false"
     inkscape:zoom="9.8333333"
     inkscape:cx="12"
     inkscape:cy="12"
     inkscape:window-x="-4"
     inkscape:window-y="-4"
     inkscape:window-maximized="1"
     inkscape:current-layer="svg70" />
  <path
     d="M19 0h-14c-2.761 0-5 2.239-5 5v14c0 2.761 2.239 5 5 5h14c2.762 0 5-2.239 5-5v-14c0-2.761-2.238-5-5-5zm.25 16.996h-2.134c-1.205 0-1.409-.687-2.401-1.679-.897-.897-1.395-.209-1.374 1.068.006.339-.161.611-.566.611-1.264 0-3.08.178-4.918-1.806-1.883-2.033-3.857-6.111-3.857-6.513 0-.237.196-.344.524-.344h2.17c.574 0 .623.284.783.649.667 1.521 2.265 4.574 2.69 2.87.244-.978.344-3.245-.703-3.44-.594-.11.452-.746 1.968-.746.377 0 .786.041 1.205.137.769.179.771.523.761 1.026-.039 1.903-.269 3.184.233 3.507.479.31 1.739-1.717 2.403-3.281.183-.433.219-.722.734-.722h2.654c1.39 0-.182 1.997-1.383 3.557-.968 1.255-.916 1.28.209 2.324.803.744 1.75 1.76 1.75 2.336.002.272-.21.446-.748.446z"
     id="path68" />
  <path
     style="fill:#ffffff;stroke-width:0.10169491"
     d="M 3.8237288,23.797356 C 2.5176721,23.450408 1.2495057,22.475616 0.64910939,21.357143 0.05558514,20.251474 0.06101695,20.337805 0.06101695,12.010169 c 0,-8.3255532 -0.0055248,-8.2375923 0.58716599,-9.3483184 C 1.0015071,1.9997072 1.9997072,1.0015071 2.6618506,0.64818294 3.7725767,0.05549214 3.6846158,0.06101695 12.010169,0.06101695 c 8.327636,0 8.241305,-0.0054318 9.346974,0.58809244 1.162322,0.62393471 2.217644,2.04688291 2.490141,3.35759101 0.148003,0.7118964 0.155975,15.1154646 0.0088,15.8963686 -0.365582,1.939734 -2.013279,3.587431 -3.953013,3.953013 -0.341534,0.06437 -3.366379,0.10072 -8.033899,0.09655 -6.2269222,-0.0056 -7.5801974,-0.03169 -8.0454392,-0.155273 z m 9.3778642,-6.931254 c 0.08533,-0.09788 0.178938,-0.456581 0.208015,-0.797109 0.06682,-0.782562 0.231259,-1.058824 0.630237,-1.058824 0.247949,0 0.45072,0.156273 1.119607,0.862865 0.477817,0.504753 0.973736,0.926813 1.194909,1.016949 0.447505,0.182374 3.121733,0.220296 3.442155,0.04881 0.557819,-0.298536 0.03059,-1.266277 -1.520353,-2.790647 -0.622689,-0.612019 -0.825316,-0.877621 -0.825316,-1.081822 0,-0.182069 0.315575,-0.698743 0.964217,-1.578657 1.421681,-1.9285836 1.799337,-2.724116 1.456122,-3.06733 -0.136093,-0.1360932 -3.303827,-0.1761679 -3.494257,-0.044206 -0.0593,0.041093 -0.388638,0.6467479 -0.731863,1.3459004 -0.668876,1.3625066 -1.471954,2.4717296 -1.82674,2.5231196 -0.389268,0.05639 -0.460051,-0.28015 -0.432123,-2.054527 C 13.41931,8.0873231 13.423315,8.1259862 13.154046,7.9495545 12.754729,7.6879117 11.544111,7.5563983 10.713559,7.6844363 9.9769693,7.7979892 9.3090679,8.0626266 9.2405903,8.2680596 9.2206396,8.3279115 9.3450725,8.4259491 9.5171078,8.4859209 10.019505,8.6610577 10.226798,9.2484201 10.222536,10.484746 10.2138,13.017041 9.4740637,12.815703 7.9806956,9.8745763 7.5830986,9.0915254 7.2058904,8.4172262 7.1424552,8.3761335 7.0790201,8.3350408 6.3806034,8.3007188 5.5904181,8.2998623 3.8288069,8.2979525 3.7943803,8.3192931 4.1264792,9.2073172 4.7232291,10.803011 6.6409377,13.91143 7.7832891,15.134648 c 1.3322908,1.426605 2.3556479,1.874394 4.3382369,1.898277 0.763154,0.0092 0.952052,-0.01998 1.080067,-0.166823 z"
     id="path78"
     inkscape:connector-curvature="0" />
</svg>
