<?xml version="1.0" encoding="UTF-8" standalone="no"?>
<svg
   xmlns:dc="http://purl.org/dc/elements/1.1/"
   xmlns:cc="http://creativecommons.org/ns#"
   xmlns:rdf="http://www.w3.org/1999/02/22-rdf-syntax-ns#"
   xmlns:svg="http://www.w3.org/2000/svg"
   xmlns="http://www.w3.org/2000/svg"
   xmlns:sodipodi="http://sodipodi.sourceforge.net/DTD/sodipodi-0.dtd"
   xmlns:inkscape="http://www.inkscape.org/namespaces/inkscape"
   width="24"
   height="24"
   viewBox="0 0 24 24"
   version="1.1"
   id="svg92"
   sodipodi:docname="youtube.svg"
   inkscape:version="0.92.4 (5da689c313, 2019-01-14)">
  <metadata
     id="metadata98">
    <rdf:RDF>
      <cc:Work
         rdf:about="">
        <dc:format>image/svg+xml</dc:format>
        <dc:type
           rdf:resource="http://purl.org/dc/dcmitype/StillImage" />
      </cc:Work>
    </rdf:RDF>
  </metadata>
  <defs
     id="defs96" />
  <sodipodi:namedview
     pagecolor="#ffffff"
     bordercolor="#666666"
     borderopacity="1"
     objecttolerance="10"
     gridtolerance="10"
     guidetolerance="10"
     inkscape:pageopacity="0"
     inkscape:pageshadow="2"
     inkscape:window-width="1920"
     inkscape:window-height="1017"
     id="namedview94"
     showgrid="false"
     inkscape:zoom="9.8333333"
     inkscape:cx="12"
     inkscape:cy="12"
     inkscape:window-x="-4"
     inkscape:window-y="-4"
     inkscape:window-maximized="1"
     inkscape:current-layer="svg92" />
  <path
     d="M19.615 3.184c-3.604-.246-11.631-.245-15.23 0-3.897.266-4.356 2.62-4.385 8.816.029 6.185.484 8.549 4.385 8.816 3.6.245 11.626.246 15.23 0 3.897-.266 4.356-2.62 4.385-8.816-.029-6.185-.484-8.549-4.385-8.816zm-10.615 12.816v-8l8 3.993-8 4.007z"
     id="path90" />
  <path
     style="fill:#ffffff;stroke-width:0.10169491"
     d="M 5.0440678,20.807111 C 3.5725012,20.713196 2.9775503,20.59259 2.3161435,20.254114 0.49270203,19.320963 -0.02561415,17.175993 0.09060456,11.044068 0.12747002,9.0989739 0.19842111,7.837932 0.30633626,7.209782 0.68864809,4.9844306 1.4480281,3.9349027 3.0101695,3.4728537 3.9902561,3.1829645 6.2572978,3.0853066 12.010169,3.0851588 c 7.993082,-2.054e-4 9.230297,0.1322489 10.310982,1.1038779 1.297942,1.1669608 1.734309,3.6145261 1.602909,8.9906243 -0.137914,5.642635 -0.841456,7.028551 -3.829145,7.543078 -0.708672,0.122045 -13.3501423,0.19291 -15.0508472,0.08437 z M 13.077452,14.000397 17.093885,11.984746 13.103384,9.9889831 C 10.908607,8.8913136 9.0668898,7.9932203 9.010678,7.9932203 c -0.06675,0 -0.1022034,1.3934571 -0.1022034,4.0169487 0,2.209323 0.034322,4.014459 0.076271,4.011414 0.041949,-0.003 1.8836664,-0.912577 4.0927064,-2.021186 z"
     id="path100"
     inkscape:connector-curvature="0" />
</svg>
