<?xml version="1.0" encoding="UTF-8" standalone="no"?>
<!-- Generator: Adobe Illustrator 19.0.0, SVG Export Plug-In . SVG Version: 6.00 Build 0)  -->

<svg
   xmlns:dc="http://purl.org/dc/elements/1.1/"
   xmlns:cc="http://creativecommons.org/ns#"
   xmlns:rdf="http://www.w3.org/1999/02/22-rdf-syntax-ns#"
   xmlns:svg="http://www.w3.org/2000/svg"
   xmlns="http://www.w3.org/2000/svg"
   xmlns:sodipodi="http://sodipodi.sourceforge.net/DTD/sodipodi-0.dtd"
   xmlns:inkscape="http://www.inkscape.org/namespaces/inkscape"
   version="1.1"
   id="Layer_1"
   x="0px"
   y="0px"
   viewBox="0 0 512 512"
   style="enable-background:new 0 0 512 512;"
   xml:space="preserve"
   sodipodi:docname="accessories.svg"
   inkscape:version="0.92.4 (5da689c313, 2019-01-14)"><metadata
   id="metadata214"><rdf:RDF><cc:Work
       rdf:about=""><dc:format>image/svg+xml</dc:format><dc:type
         rdf:resource="http://purl.org/dc/dcmitype/StillImage" /></cc:Work></rdf:RDF></metadata><defs
   id="defs212" /><sodipodi:namedview
   pagecolor="#ffffff"
   bordercolor="#666666"
   borderopacity="1"
   objecttolerance="10"
   gridtolerance="10"
   guidetolerance="10"
   inkscape:pageopacity="0"
   inkscape:pageshadow="2"
   inkscape:window-width="1920"
   inkscape:window-height="1017"
   id="namedview210"
   showgrid="false"
   inkscape:zoom="1.65625"
   inkscape:cx="256"
   inkscape:cy="256"
   inkscape:window-x="-4"
   inkscape:window-y="-4"
   inkscape:window-maximized="1"
   inkscape:current-layer="Layer_1" />
<g
   transform="translate(1 1)"
   id="g177">
	<g
   id="g175">
		<g
   id="g173">
			<path
   d="M159,362.52l-4.267,34.133c-0.853,7.68,0.853,15.36,5.973,20.48c4.267,5.12,11.093,8.533,18.773,8.533h29.867     c7.68,0,16.213-2.56,20.48-8.533s6.827-12.8,5.973-20.48l-4.267-34.133c-1.707-12.8-12.8-22.187-25.6-22.187H184.6     C171.8,340.333,160.707,349.72,159,362.52z M214.467,365.08l4.267,34.133c0.853,2.56,0,5.12-1.707,6.827s-4.267,2.56-6.827,2.56     h-29.867c-2.56,0-5.12-0.853-6.827-2.56s-1.707-4.267-1.707-6.827l4.267-34.133c0.853-4.267,4.267-7.68,8.533-7.68h21.333     C210.2,357.4,213.613,360.813,214.467,365.08z"
   id="path165" />
			<path
   d="M152.173,280.6h42.667c5.12,0,8.533-3.413,8.533-8.533c0-5.12-3.413-8.533-8.533-8.533h-42.667     c-5.12,0-8.533,3.413-8.533,8.533C143.64,277.187,147.053,280.6,152.173,280.6z"
   id="path167" />
			<path
   d="M228.973,280.6h8.533c5.12,0,8.533-3.413,8.533-8.533c0-5.12-3.413-8.533-8.533-8.533h-8.533     c-5.12,0-8.533,3.413-8.533,8.533C220.44,277.187,223.853,280.6,228.973,280.6z"
   id="path169" />
			<path
   d="M394.52,442.733h-4.239c0.54-2.751,0.825-5.603,0.825-8.533v-17.067c0-5.12-3.413-8.533-8.533-8.533h-8.533V101.4     C374.04,45.08,327.96-1,271.64-1s-102.4,46.08-102.4,102.4v51.2c-5.12,0-8.533,3.413-8.533,8.533v32.048     c-35.935,14.352-59.733,48.575-59.733,87.418V383H92.44c-14.507,0-25.6,11.093-25.6,25.6v59.733c0,14.507,11.093,25.6,25.6,25.6     h9.909C105.74,504.037,115.083,511,126.573,511h34.133h68.267h34.133h170.667c5.12,0,8.533-3.413,9.387-8.533V487.96     C443.16,463.213,420.973,442.733,394.52,442.733z M346.727,459.742c-0.02-0.001-0.039-0.003-0.059-0.004     c-8.579-0.601-15.566-5.546-19.561-12.737c-0.614-0.921-1.342-1.725-2.177-2.386c-1.346-3.157-2.09-6.67-2.09-10.414v-8.533     h8.533h34.133h8.533v8.533c0,4.403-1.027,8.489-2.857,12.048c-0.193,0.243-0.382,0.49-0.557,0.752     c-4.794,7.191-11.832,12.136-20.414,12.737c-0.02,0.001-0.04,0.003-0.06,0.004c-0.564,0.038-1.135,0.058-1.713,0.058     C347.862,459.8,347.291,459.78,346.727,459.742z M194.84,220.867c-9.387,0-17.067-7.68-17.067-17.067v-34.133h34.133v29.013     v3.413c0,10.064-7.421,17.64-15.776,18.708C195.703,220.833,195.275,220.867,194.84,220.867z M220.44,152.6v-51.2     c0-28.16,23.04-51.2,51.2-51.2s51.2,23.04,51.2,51.2v307.2c0-14.507-11.093-25.6-25.6-25.6h-8.533V280.6     c0-38.843-23.798-73.067-59.733-87.418v-32.048C228.973,156.013,225.56,152.6,220.44,152.6z M294.68,442.733     c-1.707,0-4.267,0-5.973,0v-42.667h8.533c5.12,0,8.533,3.413,8.533,8.533v8.533V434.2v8.533h-2.56H294.68z M186.307,101.4     c0-46.933,38.4-85.333,85.333-85.333s85.333,38.4,85.333,85.333v307.2h-17.067V101.4c0-37.547-30.72-68.267-68.267-68.267     c-37.547,0-68.267,30.72-68.267,68.267v51.2h-17.067V101.4z M83.907,468.333V408.6c0-5.12,3.413-8.533,8.533-8.533h8.533v76.8     H92.44C87.32,476.867,83.907,473.453,83.907,468.333z M118.04,485.4v-93.867V280.6c0-29.867,17.067-56.32,43.52-69.12     c0.048,0.167,0.101,0.336,0.152,0.504c0.97,3.905,2.613,7.552,4.805,10.804c1.324,2.163,2.816,4.145,4.43,5.759     c6.827,6.827,16.213,10.24,25.6,9.387c2.885-0.16,5.679-0.682,8.338-1.519c8.784-2.725,16.072-8.924,20.256-16.968     c0.078-0.149,0.155-0.3,0.231-0.45c0.119-0.237,0.237-0.474,0.35-0.714c0.169-0.354,0.33-0.712,0.487-1.073     c0.029-0.067,0.06-0.132,0.088-0.199c0.758-1.774,1.374-3.621,1.823-5.53c26.453,11.947,43.52,39.253,43.52,69.12v110.933v62.25     c-0.597,0.479-1.181,0.97-1.752,1.474c-0.283,0.241-0.556,0.489-0.831,0.735c-0.045,0.041-0.09,0.082-0.134,0.123     c-6.903,6.24-11.437,14.254-13.331,22.742c-0.029,0.128-0.051,0.259-0.079,0.387c-0.126,0.592-0.249,1.185-0.35,1.782     c-0.058,0.339-0.099,0.683-0.149,1.025c-0.059,0.41-0.126,0.82-0.172,1.232c-0.058,0.512-0.095,1.03-0.135,1.547     c-0.02,0.258-0.05,0.516-0.065,0.775c-0.045,0.78-0.068,1.565-0.068,2.355v5.973h-17.067v-10.24     c0-12.8-10.24-23.893-23.893-23.893h-37.547c-12.8,0-23.893,10.24-23.893,23.893v10.24h-25.6     C121.453,493.933,118.04,490.52,118.04,485.4z M169.24,493.933c0,0,0-10.24,0-10.24c0-3.413,2.56-6.827,6.827-6.827h37.547     c3.413,0,6.827,2.56,6.827,6.827v10.24H169.24z M425.24,493.933h-153.6v-5.973c0-15.36,14.507-28.16,31.573-28.16h10.89     c7.715,10.418,20.118,17.067,34.336,17.067s26.621-6.649,34.336-17.067h10.89c17.067,0,31.573,12.8,31.573,28.16V493.933z"
   id="path171" />
		</g>
	</g>
</g>
<g
   id="g179">
</g>
<g
   id="g181">
</g>
<g
   id="g183">
</g>
<g
   id="g185">
</g>
<g
   id="g187">
</g>
<g
   id="g189">
</g>
<g
   id="g191">
</g>
<g
   id="g193">
</g>
<g
   id="g195">
</g>
<g
   id="g197">
</g>
<g
   id="g199">
</g>
<g
   id="g201">
</g>
<g
   id="g203">
</g>
<g
   id="g205">
</g>
<g
   id="g207">
</g>
<path
   style="fill:#ffffff;stroke-width:0.60377359"
   d="m 121.41887,510.90829 c -6.92676,-1.72314 -14.0496,-7.42371 -16.66578,-13.33802 l -1.20205,-2.71744 -5.254765,-0.004 c -7.14115,-0.005 -11.640616,-0.82933 -16.220696,-2.9726 -6.741443,-3.15458 -11.792414,-9.71671 -13.4169,-17.43086 -0.872317,-4.14234 -0.930711,-64.99477 -0.06681,-69.62372 1.48423,-7.95279 6.769308,-14.66005 14.352538,-18.21471 3.747833,-1.7568 4.64841,-1.92139 11.734689,-2.14462 l 7.675324,-0.2418 0.20326,-57.74064 c 0.20057,-56.97619 0.22087,-57.81784 1.53335,-63.57223 0.73155,-3.20737 2.30089,-8.62063 3.48743,-12.02947 8.16531,-23.45833 25.51523,-42.74543 48.36777,-53.76823 l 6.22735,-3.00373 v -17.38665 c 0,-17.06929 0.025,-17.42411 1.37017,-19.43821 0.97941,-1.46648 2.17286,-2.2937 4.18485,-2.90065 l 2.81469,-0.84909 0.24369,-32.35846 c 0.23145,-30.732018 0.31115,-32.66192 1.5857,-38.396182 4.84341,-21.790713 14.46865,-39.117372 30.02593,-54.050509 27.32118,-26.225087 66.28426,-35.0527889 102.26554,-23.169881 31.13257,10.281606 56.41829,36.341386 65.75413,67.767023 4.3093,14.50566 3.94563,-1.029971 4.13277,176.547709 l 0.16844,159.84905 4.97233,0.0341 c 6.26605,0.0429 8.76226,0.88956 10.58069,3.58856 1.41141,2.09489 1.42207,2.23684 1.22845,16.37577 l -0.1953,14.26255 6.64151,0.3326 c 7.63327,0.38227 13.59819,1.8932 19.89224,5.03877 12.31967,6.15697 21.46439,17.12907 24.83828,29.80163 0.79295,2.97836 1.05828,6.54469 1.10056,14.79246 0.0614,11.9753 -0.30422,13.43615 -4.06401,16.23877 l -1.70462,1.27068 -156.78595,0.10134 c -123.27041,0.0797 -157.43127,-0.0592 -159.8048,-0.64965 z m 32.30188,-24.2064 c 0.27402,-7.67235 0.45579,-8.7662 1.96861,-11.84674 2.60191,-5.29817 5.92741,-8.6423 11.1716,-11.23411 l 4.60849,-2.27764 h 24.18226 c 24.14432,0 24.18793,0.002 27.80489,1.45422 2.62745,1.05472 4.71595,2.54752 7.60239,5.43396 5.55331,5.5533 6.68938,8.64953 7.05406,19.22502 l 0.27588,8 h 8.59505 8.59506 l 0.37083,-6.79245 c 0.20396,-3.73585 0.81248,-8.42264 1.35228,-10.41509 2.00749,-7.40994 7.24247,-15.94854 12.75046,-20.79687 l 2.61154,-2.29877 -0.002,-90.48992 c -0.002,-98.39892 0.0873,-95.56078 -3.37817,-106.59353 -5.01562,-15.96788 -15.80131,-30.66074 -29.11432,-39.66113 -3.31621,-2.24196 -10.30266,-6.11811 -11.03216,-6.12076 -0.19649,-6e-4 -0.69818,1.15343 -1.11485,2.56475 -2.3747,8.04327 -9.32731,16.22789 -16.98755,19.99775 -19.00781,9.35436 -38.87252,1.52812 -46.88328,-18.47093 -0.83517,-2.08503 -1.60779,-3.89013 -1.71694,-4.01133 -0.38866,-0.43157 -8.08553,4.20462 -12.7386,7.67307 -14.72187,10.97384 -24.95288,26.8838 -29.37441,45.67936 -1.27318,5.41219 -1.27904,5.86883 -1.46321,113.94749 -0.20134,118.1543 -0.38711,111.40364 3.1291,113.70754 2.64805,1.73508 4.98429,1.97235 18.4504,1.87387 l 12.98113,-0.0949 0.30189,-8.45283 z m 67.92453,2.0059 c 0,-5.60025 -0.16616,-6.67072 -1.26521,-8.15095 -2.29465,-3.09047 -4.0701,-3.30115 -26.10269,-3.09753 l -20.12262,0.18597 -2.06606,2.25528 -2.06606,2.25529 v 6.65686 6.65686 l 25.81132,-0.15743 25.81132,-0.15742 z m 204.98114,2.34736 c 0,-8.45504 -2.73954,-15.20143 -8.53857,-21.02711 -6.45874,-6.48843 -15.24659,-9.56068 -27.4021,-9.57982 l -6.65764,-0.0105 -4.81405,4.72204 c -5.24799,5.14769 -10.32297,8.296 -16.88953,10.47759 -3.64554,1.21116 -5.42965,1.40396 -12.98113,1.40281 -8.25052,-0.001 -9.05438,-0.10855 -13.95789,-1.86282 -6.40369,-2.29097 -12.63047,-6.35463 -17.0471,-11.12513 l -3.34639,-3.61449 -6.82431,0.0105 c -3.75337,0.006 -8.7262,0.41156 -11.05073,0.90177 -10.836,2.28515 -20.38405,10.40262 -23.42819,19.91794 -1.07849,3.37113 -1.99863,12.49742 -1.36362,13.52488 0.29475,0.47691 22.07181,0.66377 77.35575,0.66377 h 76.9455 z M 102.4,439.30566 v -38.64151 h -5.119858 c -6.233605,0 -9.452028,1.12533 -11.170435,3.90577 -1.184181,1.91605 -1.218886,2.91418 -1.21024,34.807 0.0068,25.05233 0.187751,33.18786 0.763513,34.32571 0.415037,0.82023 1.673853,2.11079 2.797368,2.86792 1.783037,1.2016 2.799049,1.37662 7.991204,1.37662 H 102.4 Z m 256.2075,19.94425 c 6.3003,-2.422 13.09052,-9.14854 15.25712,-15.11406 0.61728,-1.69963 1.09911,-5.48644 1.28679,-10.11321 l 0.30003,-7.39622 h -26.124 -26.12399 l 0.34699,7.09433 c 0.19084,3.90189 0.68479,8.04529 1.09766,9.20755 1.13616,3.19837 7.11913,10.83812 10.51381,13.42526 6.25282,4.76537 15.58489,5.9182 23.44559,2.89635 z M 307.07831,425.8717 c -6e-4,-16.19517 -0.12053,-18.49868 -1.0566,-20.33444 -1.89474,-3.71581 -3.70958,-4.5452 -10.45667,-4.77875 l -5.99523,-0.20751 v 21.79242 21.79243 h 8.75472 8.75472 l -10e-4,-18.26415 z m 51.31123,-171.16981 c -0.007,-98.70981 -0.2291,-157.102361 -0.61237,-160.75472 -2.114,-20.145504 -10.82496,-38.21134 -25.32802,-52.528302 -12.20249,-12.045924 -27.55693,-20.012174 -44.99255,-23.343209 -7.53256,-1.43908 -22.18588,-1.40706 -29.88679,0.06531 -34.99875,6.69155 -61.42868,32.723992 -68.97299,67.935707 -1.1271,5.260547 -1.25641,8.427092 -1.49871,36.700684 l -0.26519,30.94339 h 8.75359 8.75359 l 0.26279,-30.03773 c 0.28007,-32.012768 0.38979,-33.316726 3.59436,-42.716979 8.04413,-23.596559 28.24255,-40.972553 53.02188,-45.61286 5.57071,-1.043202 18.64366,-0.886466 24.12427,0.289235 14.38394,3.085646 25.80244,9.324236 35.7127,19.511923 9.63263,9.902292 15.2507,20.434078 18.44826,34.583662 0.93978,4.158594 1.03487,16.835549 1.2171,162.246909 l 0.19766,157.73584 H 349.65956 358.4 Z M 323.04635,92.437736 c -1.96285,-9.841661 -6.48919,-18.421362 -13.55201,-25.687904 -28.82782,-29.659323 -78.73446,-15.07303 -87.27068,25.506742 -0.69987,3.327052 -0.88026,10.044116 -0.88026,32.776436 v 28.5918 l 1.78296,0.39161 c 0.98063,0.21537 2.5079,0.96183 3.39392,1.65877 3.05628,2.40407 3.2737,3.85399 3.30289,22.02617 l 0.0269,16.77411 5.82897,2.71698 c 9.85715,4.59459 17.67312,10.17154 26.16089,18.66666 16.00349,16.01735 24.74059,34.3654 27.1202,56.95279 0.33458,3.17589 0.59323,28.45842 0.59918,58.56923 l 0.0105,52.98113 h 6.28583 c 7.26855,0 11.9104,1.18017 16.67996,4.24079 5.63785,3.6178 9.9392,10.56464 10.73803,17.34233 0.22517,1.91041 0.48289,-66.76047 0.57273,-152.60198 0.14745,-140.88773 0.0696,-156.545501 -0.80001,-160.905664 z M 201.80348,220.78643 c 3.83538,-1.7416 7.46427,-5.38432 9.36957,-9.4053 l 1.71656,-3.62264 4.8e-4,-18.56604 4.8e-4,-18.56603 h -17.23853 -17.23853 l 0.18193,19.47169 0.18192,19.4717 1.79209,3.2355 c 2.11809,3.82409 5.5574,6.94219 9.00661,8.16546 3.57828,1.26904 9.21383,1.18408 12.22742,-0.18434 z"
   id="path216"
   inkscape:connector-curvature="0" /><path
   style="fill:#ffffff;stroke-width:0.60377359"
   d="m 148.74721,280.17184 c -2.1978,-1.19252 -3.67494,-4.19807 -3.62684,-7.3796 0.046,-3.04308 1.28149,-5.16666 3.95394,-6.79617 1.82477,-1.11262 3.20063,-1.17658 25.35567,-1.17872 25.42378,-0.002 25.4818,0.005 28.14312,3.38786 0.91493,1.16314 1.25499,2.45027 1.23947,4.69131 -0.025,3.60701 -0.88904,5.42958 -3.34007,7.04531 -1.67731,1.10569 -3.04326,1.16613 -25.92156,1.147 -20.18944,-0.0169 -24.42205,-0.1673 -25.80373,-0.91699 z"
   id="path218"
   inkscape:connector-curvature="0" /><path
   style="fill:#ffffff;stroke-width:0.60377359"
   d="m 225.49301,280.1004 c -2.35196,-1.45968 -3.54584,-3.91659 -3.54584,-7.29704 0,-3.35355 1.33947,-5.58971 4.24974,-7.09467 2.59276,-1.34077 13.48607,-1.23106 16.27856,0.16395 4.0344,2.0154 5.45027,7.81572 2.8498,11.67456 -2.08988,3.10117 -3.53,3.55284 -11.30263,3.54481 -5.35839,-0.006 -7.30549,-0.23189 -8.52963,-0.99161 z"
   id="path220"
   inkscape:connector-curvature="0" /><path
   style="fill:#ffffff;stroke-width:0.60377359"
   d="m 176.17186,425.98275 c -7.23622,-1.27464 -15.06826,-7.18976 -18.02404,-13.61257 -1.54502,-3.3573 -2.58908,-9.98363 -2.17739,-13.81924 1.57437,-14.66799 4.60036,-36.85732 5.35193,-39.24528 2.70691,-8.60067 10.57966,-15.5029 19.64335,-17.2218 4.25533,-0.807 26.89623,-0.74575 30.83853,0.0834 8.02745,1.68841 14.2516,6.43935 17.77445,13.56733 2.1401,4.3302 2.29621,5.10607 4.51595,22.44324 1.26456,9.87689 2.30909,20.01088 2.32115,22.51999 0.0265,5.51764 -1.50058,10.47358 -4.80065,15.57942 -2.68444,4.15335 -6.10318,6.70564 -11.52936,8.60735 -3.64559,1.27766 -4.96224,1.3669 -22.28955,1.51065 -10.12831,0.084 -19.85927,-0.10162 -21.62437,-0.41253 z m 40.75106,-17.83009 c 3.74596,-2.78438 3.72916,-2.45079 1.17391,-23.30887 -2.52812,-20.63651 -3.18702,-23.18359 -6.52368,-25.21788 -1.85063,-1.12829 -3.01587,-1.2214 -15.28636,-1.2214 -19.47748,0 -18.42496,-1.2223 -21.73195,25.2377 -2.33561,18.68783 -2.34886,21.46047 -0.11258,23.56135 2.47968,2.32953 3.83398,2.47009 22.55614,2.34097 17.45497,-0.12038 18.29265,-0.1789 19.92452,-1.39187 z"
   id="path222"
   inkscape:connector-curvature="0" /></svg>