<?xml version="1.0" encoding="UTF-8" standalone="no"?>
<!-- Generator: Adobe Illustrator 19.0.0, SVG Export Plug-In . SVG Version: 6.00 Build 0)  -->

<svg
   xmlns:dc="http://purl.org/dc/elements/1.1/"
   xmlns:cc="http://creativecommons.org/ns#"
   xmlns:rdf="http://www.w3.org/1999/02/22-rdf-syntax-ns#"
   xmlns:svg="http://www.w3.org/2000/svg"
   xmlns="http://www.w3.org/2000/svg"
   xmlns:sodipodi="http://sodipodi.sourceforge.net/DTD/sodipodi-0.dtd"
   xmlns:inkscape="http://www.inkscape.org/namespaces/inkscape"
   version="1.1"
   id="Capa_1"
   x="0px"
   y="0px"
   viewBox="0 0 512 512"
   style="enable-background:new 0 0 512 512;"
   xml:space="preserve"
   sodipodi:docname="account.svg"
   inkscape:version="0.92.4 (5da689c313, 2019-01-14)"><metadata
   id="metadata3809"><rdf:RDF><cc:Work
       rdf:about=""><dc:format>image/svg+xml</dc:format><dc:type
         rdf:resource="http://purl.org/dc/dcmitype/StillImage" /><dc:title></dc:title></cc:Work></rdf:RDF></metadata><defs
   id="defs3807" /><sodipodi:namedview
   pagecolor="#ffffff"
   bordercolor="#666666"
   borderopacity="1"
   objecttolerance="10"
   gridtolerance="10"
   guidetolerance="10"
   inkscape:pageopacity="0"
   inkscape:pageshadow="2"
   inkscape:window-width="1920"
   inkscape:window-height="1017"
   id="namedview3805"
   showgrid="false"
   inkscape:zoom="1.65625"
   inkscape:cx="256"
   inkscape:cy="280.15094"
   inkscape:window-x="-4"
   inkscape:window-y="-4"
   inkscape:window-maximized="1"
   inkscape:current-layer="Capa_1" />
<g
   id="g3766">
	<g
   id="g3764">
		<path
   d="M256,0c-71.017,0-128.789,57.772-128.789,128.789S184.983,257.578,256,257.578s128.789-57.772,128.789-128.789    S327.017,0,256,0z M256,219.699c-50.127,0-90.91-40.783-90.91-90.91c0-50.127,40.783-90.91,90.91-90.91s90.91,40.783,90.91,90.91    C346.91,178.916,306.127,219.699,256,219.699z"
   id="path3762" />
	</g>
</g>
<g
   id="g3772">
	<g
   id="g3770">
		<path
   d="M256,303.033c-113.284,0-202.022,91.787-202.022,208.967h37.879c0-97.539,70.569-171.088,164.143-171.088    S420.143,414.467,420.143,512h37.879C458.022,394.821,369.284,303.033,256,303.033z"
   id="path3768" />
	</g>
</g>
<g
   id="g3774">
</g>
<g
   id="g3776">
</g>
<g
   id="g3778">
</g>
<g
   id="g3780">
</g>
<g
   id="g3782">
</g>
<g
   id="g3784">
</g>
<g
   id="g3786">
</g>
<g
   id="g3788">
</g>
<g
   id="g3790">
</g>
<g
   id="g3792">
</g>
<g
   id="g3794">
</g>
<g
   id="g3796">
</g>
<g
   id="g3798">
</g>
<g
   id="g3800">
</g>
<g
   id="g3802">
</g>
<path
   style="fill:#ffffff;stroke-width:0.60377359"
   d="m 247.90943,256.88474 c -44.87939,-2.3228 -86.5272,-30.03917 -106.93405,-71.16399 -5.80839,-11.70534 -9.19076,-22.06395 -11.82889,-36.22641 -1.52793,-8.20247 -1.52008,-33.42868 0.013,-41.66038 5.34096,-28.678355 18.23554,-52.811839 38.55204,-72.153979 36.74393,-34.98171081 91.05253,-44.9791605 137.84421,-25.375183 40.8448,17.112452 69.81631,53.890305 77.3102,98.141352 1.3335,7.87425 1.83323,25.308 0.95163,33.19913 -4.78161,42.79986 -29.03102,79.24825 -66.47413,99.9148 -20.99849,11.59001 -43.90602,16.6459 -69.43397,15.32466 z m 16.77852,-37.3908 c 12.17962,-1.33348 21.66623,-4.06063 31.81857,-9.14702 25.12548,-12.58802 42.49739,-34.95913 48.71662,-62.73605 1.22926,-5.49028 1.40123,-7.83975 1.38676,-18.94672 -0.0141,-10.79633 -0.21215,-13.55019 -1.33383,-18.5441 -7.30639,-32.529215 -30.41174,-58.216627 -61.15468,-67.988824 -10.99351,-3.494486 -14.82591,-4.035704 -28.3629,-4.005455 -13.44153,0.03003 -18.83061,0.826199 -28.80825,4.256032 -17.63289,6.061339 -34.66647,18.644153 -45.04034,33.271577 -18.56583,26.17832 -22.21581,60.58006 -9.49456,89.48817 12.63237,28.70617 39.95997,49.6593 70.06013,53.71782 10.49879,1.41559 14.13106,1.51936 22.21248,0.63457 z"
   id="path3811"
   inkscape:connector-curvature="0" /><path
   style="fill:#ffffff;stroke-width:0.60377359"
   d="m 54.340954,504.36226 c 0.980495,-18.22116 2.944512,-32.0374 6.633604,-46.6653 13.696852,-54.31044 47.538182,-99.87902 94.763672,-127.60272 38.73354,-22.73851 86.71949,-31.49462 132.54793,-24.18634 57.71404,9.20367 108.03049,43.39463 139.00191,94.45436 17.34714,28.59862 28.60843,65.48469 29.86173,97.81132 0.16736,4.31699 0.41942,9.13963 0.56012,10.71699 l 0.25583,2.86792 h -18.68853 -18.68854 l -0.009,-1.66038 c -0.0299,-5.32769 -1.41107,-20.92973 -2.4719,-27.92453 -8.17223,-53.88499 -39.9034,-99.39463 -85.90845,-123.212 -16.37058,-8.47525 -31.82387,-13.43694 -51.98765,-16.69201 -9.7329,-1.5712 -38.67542,-1.5402 -48.90566,0.0524 -17.33183,2.69811 -32.89345,7.57545 -48.30189,15.13886 -16.4731,8.086 -29.13985,17.11349 -41.98171,29.92003 -29.9234,29.84109 -46.850857,69.74671 -49.237876,116.07577 l -0.42774,8.30189 H 72.649701 53.942957 Z"
   id="path3813"
   inkscape:connector-curvature="0" /><path
   style="fill:#ffffff;stroke-width:0.60377359"
   d=""
   id="path3815"
   inkscape:connector-curvature="0" /></svg>