<?xml version="1.0" encoding="UTF-8" standalone="no"?>
<svg
   xmlns:dc="http://purl.org/dc/elements/1.1/"
   xmlns:cc="http://creativecommons.org/ns#"
   xmlns:rdf="http://www.w3.org/1999/02/22-rdf-syntax-ns#"
   xmlns:svg="http://www.w3.org/2000/svg"
   xmlns="http://www.w3.org/2000/svg"
   xmlns:sodipodi="http://sodipodi.sourceforge.net/DTD/sodipodi-0.dtd"
   xmlns:inkscape="http://www.inkscape.org/namespaces/inkscape"
   id="Capa_1"
   enable-background="new 0 0 512 512"
   height="512"
   viewBox="0 0 512 512"
   width="512"
   version="1.1"
   sodipodi:docname="beauty.svg"
   inkscape:version="0.92.4 (5da689c313, 2019-01-14)">
  <metadata
     id="metadata364">
    <rdf:RDF>
      <cc:Work
         rdf:about="">
        <dc:format>image/svg+xml</dc:format>
        <dc:type
           rdf:resource="http://purl.org/dc/dcmitype/StillImage" />
      </cc:Work>
    </rdf:RDF>
  </metadata>
  <defs
     id="defs362" />
  <sodipodi:namedview
     pagecolor="#ffffff"
     bordercolor="#666666"
     borderopacity="1"
     objecttolerance="10"
     gridtolerance="10"
     guidetolerance="10"
     inkscape:pageopacity="0"
     inkscape:pageshadow="2"
     inkscape:window-width="1920"
     inkscape:window-height="1017"
     id="namedview360"
     showgrid="false"
     inkscape:zoom="0.4609375"
     inkscape:cx="256"
     inkscape:cy="256"
     inkscape:window-x="-4"
     inkscape:window-y="-4"
     inkscape:window-maximized="1"
     inkscape:current-layer="Capa_1" />
  <g
     id="g357">
    <g
       id="g355">
      <path
         d="m241.66 126.03c2.093 5.023 8.017 7.49 13.05 5.4 5.035-2.091 7.497-8.017 5.41-13.06-2.081-5.026-8.036-7.491-13.06-5.4-5.049 2.101-7.469 8.013-5.4 13.06z"
         id="path351" />
      <path
         d="m457.619 362.93h-.329v-6.758c0-48.03-39.109-87.106-87.181-87.106-48.071 0-87.18 39.076-87.18 87.106v68.722c0 37.002-30.137 67.106-67.181 67.106-27.109 0-51.287-16.305-61.74-40.626 10.597-5.517 17.855-16.595 17.855-29.342v-15.47c17.657-11.099 29.424-30.733 29.424-53.072v-42.317c36.587-4.893 54.894-35.362 55.718-36.768 2.462-4.202 1.54-9.566-2.185-12.704l-43.946-37.021 132.206-44.953c24.049-8.179 51.081-1.729 69.436 15.638 10.217 9.675 25.786 20.797 46.416 25.389 8.385 1.868 29.38 6.724 29.38-7.839v-180.157c0-11.094-12.244-10.299-19.925-9.481-20.087 2.118-38.629 11.002-55.284 26.487-18.489 17.219-45.581 23.446-69.562 15.078l-154.006-53.781c-15.658-7.15-32.959-11.061-50.964-11.061-66.523 0-122.315 55.585-122.315 122.206 0 14.113 2.415 27.67 6.84 40.292.128.461.284.911.474 1.343 9.671 26.582 28.326 48.887 52.279 63.241v126.408c0 22.517 11.952 42.291 29.844 53.341v15.201c0 16.548 12.227 30.294 28.127 32.695 12.413 34.068 45.094 57.273 81.929 57.273 48.072 0 87.181-39.076 87.181-87.106v-68.722c0-37.002 30.137-67.106 67.181-67.106s67.181 30.104 67.181 67.106v6.758h-.329c-21.022 0-38.125 17.091-38.125 38.098v40.991c0 5.523 4.477 10 10 10h9.888v17.032c0 5.523 4.477 10 10 10s10-4.477 10-10v-17.032h16.248v17.032c0 5.523 4.477 10 10 10s10-4.477 10-10v-17.032h10.771c5.523 0 10-4.477 10-10v-40.991c-.001-21.007-17.104-38.098-38.126-38.098zm-256.332-71.991v-48.185l33.479 28.204c-5.927 6.865-17.095 16.922-33.479 19.981zm217.546-116.415v-103.555c7.115-5.259 13.163-11.71 20.629-16.539 8.72-5.64 18.548-9.539 28.85-10.994v158.717c-10.547-1.56-20.633-5.629-29.548-11.433-7.251-4.719-13.086-10.983-19.931-16.196zm-370.773-4.705h38.776c5.523 0 10-4.477 10-10s-4.477-10-10-10h-46.783c-1.6-5.688-2.717-11.574-3.307-17.613h49.102c5.523 0 10-4.477 10-10s-4.477-10-10-10h-49.102c.586-6 1.693-11.849 3.277-17.502h45.826c5.523 0 10-4.477 10-10s-4.477-10-10-10h-37.847c17.149-32.497 51.309-54.704 90.569-54.704 41.007 0 78.868 25.276 94.566 63.142 1.851 4.465 6.563 6.878 11.131 5.991.653-.126 1.302-.32 1.94-.585 5.102-2.115 7.523-7.965 5.409-13.067-3.967-9.569-9.164-18.662-15.398-26.934l100.732 35.177c20.421 7.126 42.33 6.332 61.882-1.545v80.799c-19.575-8.163-41.606-9.189-62.192-2.188l-99.517 33.838c5.756-7.837 10.599-16.379 14.351-25.352 2.13-5.095-.273-10.953-5.369-13.083-5.018-2.097-10.983.329-13.09 5.367-15.251 36.468-51.439 61.423-90.926 62.787-38.834 1.313-75.857-20.193-94.03-54.528zm47.789 66.902c27.39 10.176 58.038 10.197 85.438.029v65.104 51.635c0 16.897-9.885 31.531-24.182 38.438-10.322 4.991-22.498 5.543-33.257 1.619-16.325-6.004-27.999-21.694-27.999-40.057zm29.844 185.311v-7.189c8.579 1.787 17.602 1.761 26.17-.088v7.278c0 7.206-5.868 13.067-13.08 13.067-7.218-.001-13.09-5.863-13.09-13.068zm350.051 9.987h-56.908v-30.991c0-9.979 8.131-18.098 18.125-18.098h20.658c9.994 0 18.125 8.119 18.125 18.098z"
         id="path353" />
    </g>
  </g>
  <path
     style="fill:#ffffff;stroke-width:2.16949153"
     d="m 196.00471,508.77685 c -22.25435,-5.24496 -44.90529,-22.63391 -55.07874,-42.28354 -4.92765,-9.51758 -8.08148,-12.81519 -15.36302,-16.06341 -12.24176,-5.4609 -17.93759,-15.05944 -17.94806,-30.24586 -0.008,-11.08122 -0.56585,-12.29612 -9.648137,-20.99849 -5.302014,-5.08021 -11.891845,-13.45525 -14.644068,-18.61116 -4.893551,-9.1674 -5.018394,-10.9632 -5.654129,-81.33065 L 77.018468,227.28747 65.181319,218.35034 C 34.770959,195.39029 17.803544,160.56034 18.102231,121.70847 18.531134,65.918605 56.652791,18.231727 111.94576,4.3183811 c 23.67957,-5.9584788 47.36604,-3.37609315 81.35593,8.8697209 15.51187,5.588584 57.36733,20.332586 93.01212,32.764447 58.83058,20.518374 66.23505,22.603225 80.27118,22.601671 18.38371,-0.002 33.36737,-6.443543 54.89879,-23.601112 7.37135,-5.873938 18.92035,-12.744403 25.66448,-15.267702 15.37267,-5.751656 35.07137,-6.969951 37.9943,-2.349813 1.2155,1.921304 2.07241,41.709152 2.09202,97.138447 l 0.0332,93.8842 -5.96611,2.28825 c -13.82992,5.30436 -42.63161,-5.45712 -66.71186,-24.92625 -18.02032,-14.56962 -38.41939,-22.0924 -54.94975,-20.2644 -9.99628,1.10543 -150.1397,47.1984 -149.90481,49.30348 0.0666,0.59661 10.26557,9.38305 22.66442,19.52543 12.39886,10.14237 23.14456,20.16394 23.87933,22.27015 3.54553,10.16331 -24.08199,35.61238 -44.28075,40.78918 l -10.69489,2.74102 -0.82671,28.38795 c -0.97825,33.5919 -5.1212,45.72227 -20.43766,59.84047 -8.76186,8.07641 -9.51698,9.61838 -9.51698,19.43401 0,13.70598 -2.68791,20.52803 -11.12397,28.23317 l -6.80706,6.21729 4.67391,7.56254 c 15.77328,25.5217 46.57184,38.27439 74.5443,30.86633 21.20169,-5.6149 35.02287,-16.7435 45.62118,-36.7335 4.373,-8.2481 4.83191,-12.99289 6.00467,-62.08319 1.44781,-60.60329 3.29557,-68.76659 20.30234,-89.69474 25.36583,-31.21462 67.81002,-40.30154 104.21177,-22.31081 27.08081,13.38404 42.9153,35.94498 47.48346,67.65429 2.18581,15.17231 2.521,15.81724 8.88225,17.08949 10.09362,2.01872 21.86353,10.82147 25.93163,19.39433 2.97396,6.26716 3.54367,13.08919 3.05091,36.53258 l -0.60589,28.82638 -9.22034,0.66712 -9.22034,0.66712 v 10.56775 c 0,10.62202 -3.75515,17.38615 -9.65203,17.38615 -4.85617,0 -7.40046,-5.12351 -8.10752,-16.32627 l -0.68113,-10.79237 -9.22034,-0.66712 -9.22034,-0.66712 v 11.98063 c 0,9.76023 -0.80414,12.41096 -4.33898,14.30276 -3.08283,1.64988 -5.59514,1.64988 -8.67797,0 -3.52638,-1.88726 -4.33898,-4.54253 -4.33898,-14.17802 v -11.85588 h -7.15932 c -11.43841,0 -12.3661,-2.41104 -12.3661,-32.13852 0,-23.14498 0.62633,-28.04615 4.45459,-34.85759 5.19326,-9.24021 15.56382,-16.95334 25.45371,-18.93131 6.66338,-1.33267 6.97305,-1.84715 6.97305,-11.58441 0,-15.47262 -5.75008,-29.3087 -17.54249,-42.21147 -14.26861,-15.61214 -28.12448,-21.64517 -49.71175,-21.64517 -21.58726,0 -35.44313,6.03303 -49.71175,21.64517 -15.7661,17.25064 -17.53945,24.55383 -17.55886,72.31316 -0.0195,46.19876 -2.21481,63.37862 -10.18097,79.64763 -17.19379,35.11429 -58.93333,55.04417 -96.65896,46.15292 z m -46.21586,-78.39857 c 1.85749,-2.65192 3.37725,-7.28921 3.37725,-10.30508 0,-5.30243 -0.46531,-5.48337 -14.10169,-5.48337 h -14.1017 v 6.33765 c 0,8.65451 5.63471,14.27252 14.31492,14.27252 4.91266,0 8.18554,-1.50133 10.51122,-4.82172 z m 326.63149,-16.75222 c 0,-17.02413 -0.6018,-20.10407 -4.90594,-25.10792 -9.27403,-10.7817 -42.433,-9.61655 -50.40937,1.77128 -2.30033,3.28422 -3.26096,10.26534 -3.26096,23.6984 v 19.04269 h 29.28813 29.28814 z M 163.44812,389.18764 c 5.22232,-3.45597 10.56286,-9.58064 13.31956,-15.27521 4.37258,-9.03255 4.60181,-12.71407 4.60181,-73.90586 0,-35.4199 -0.24407,-64.38922 -0.54237,-64.37632 -0.29831,0.013 -5.42373,1.53175 -11.38983,3.37517 -17.61128,5.44156 -53.94218,4.15924 -71.343069,-2.51811 -3.501453,-1.34363 -3.699525,2.82435 -3.080841,64.82929 l 0.661196,66.26525 6.598704,9.38388 c 10.07744,14.33092 20.63691,19.50403 38.11563,18.67296 11.15098,-0.53022 16.28086,-1.96536 23.05921,-6.45105 z m 54.80273,-103.74979 c 4.17627,-2.11723 9.84059,-6.25805 12.58737,-9.20185 l 4.99414,-5.3524 -13.67211,-11.74519 c -23.61042,-20.28284 -21.26533,-21.14371 -21.26533,7.80654 0,28.55047 -0.8005,27.69753 17.35593,18.4929 z m -49.25918,-65.03762 c 26.47646,-8.17776 51.05557,-29.14428 63.04213,-53.77634 4.02525,-8.27179 5.27625,-9.24934 11.10545,-8.67797 9.164,0.89825 9.54468,7.51749 1.30706,22.72665 -3.65937,6.7563 -6.20946,12.72812 -5.66687,13.27071 0.54259,0.54259 25.6872,-7.43404 55.87693,-17.72584 59.95997,-20.4406 71.49451,-22.33835 94.09714,-15.4816 5.85743,1.77691 10.89395,3.24132 11.19225,3.25424 0.29831,0.0129 0.54238,-18.52567 0.54238,-41.19686 0,-22.67119 -0.40928,-41.220339 -0.90952,-41.220339 -0.50024,0 -7.0037,1.561253 -14.45211,3.469451 -20.82458,5.335008 -33.30217,2.88028 -94.1977,-18.531586 -29.8305,-10.488899 -54.52413,-18.832787 -54.87475,-18.541978 -0.35059,0.290812 2.81978,6.262231 7.04528,13.269821 8.27593,13.724832 9.52007,20.456895 4.54387,24.58678 -5.63567,4.677179 -10.64663,1.384754 -18.04896,-11.858964 C 207.95064,35.243288 165.65276,13.91474 123.49894,20.468249 114.37142,21.887273 100.90584,25.973029 93.1371,29.680707 78.408541,36.710001 57.455601,55.56319 50.534973,68.013559 l -3.919265,7.050848 h 19.790703 c 21.272174,0 28.18342,2.108761 28.18342,8.599333 0,9.05444 -5.368813,10.926091 -31.341406,10.926091 H 38.725424 l -1.355932,6.779659 c -2.607721,13.0386 -3.535879,12.56787 26.072838,13.22332 23.349981,0.5169 27.784272,1.17176 29.819412,4.4038 1.741194,2.76521 1.741194,4.82801 0,7.59322 -2.03514,3.23204 -6.469431,3.8869 -29.819412,4.4038 -29.608717,0.65545 -28.680559,0.18472 -26.072838,13.22332 l 1.355932,6.77966 h 25.607747 c 20.387118,0 26.302781,0.69503 29.016949,3.4092 4.03328,4.03328 4.067881,4.32326 1.163379,9.75037 -2.000738,3.73842 -4.723415,4.19636 -24.949152,4.19636 -12.486832,0 -22.70333,0.55631 -22.70333,1.23623 0,0.67993 2.823168,5.33957 6.273705,10.35475 13.325683,19.36822 35.771062,35.28579 58.811038,41.70699 15.42793,4.29971 40.88338,3.7418 57.04591,-1.25028 z m 300.92019,-97.8782 V 41.979661 l -6.3488,1.269758 c -9.929,1.985805 -24.16314,9.340069 -35.30986,18.243334 l -10.20106,8.147925 -0.10413,52.804792 c -0.11737,59.5213 -1.9057,52.95248 18.34832,67.39314 8.14974,5.81059 24.82211,12.88999 30.90356,13.12223 2.12265,0.0811 2.71187,-17.396 2.71187,-80.43881 z"
     id="path366"
     inkscape:connector-curvature="0" />
  <path
     style="fill:#ffffff;stroke-width:2.16949153"
     d="m 244.71864,128.8678 c -5.84745,-5.84745 -1.28889,-14.75255 7.55189,-14.75255 3.47588,0 5.3557,1.62243 6.31684,5.45191 2.34651,9.34925 -7.33051,15.83885 -13.86873,9.30064 z"
     id="path368"
     inkscape:connector-curvature="0" />
</svg>
