<?xml version="1.0" encoding="UTF-8" standalone="no"?>
<!-- Generator: Adobe Illustrator 19.0.0, SVG Export Plug-In . SVG Version: 6.00 Build 0)  -->

<svg
   xmlns:dc="http://purl.org/dc/elements/1.1/"
   xmlns:cc="http://creativecommons.org/ns#"
   xmlns:rdf="http://www.w3.org/1999/02/22-rdf-syntax-ns#"
   xmlns:svg="http://www.w3.org/2000/svg"
   xmlns="http://www.w3.org/2000/svg"
   xmlns:sodipodi="http://sodipodi.sourceforge.net/DTD/sodipodi-0.dtd"
   xmlns:inkscape="http://www.inkscape.org/namespaces/inkscape"
   version="1.1"
   id="Capa_1"
   x="0px"
   y="0px"
   viewBox="0 0 512 512"
   style="enable-background:new 0 0 512 512;"
   xml:space="preserve"
   sodipodi:docname="bork-home.svg"
   inkscape:version="0.92.4 (5da689c313, 2019-01-14)"><metadata
   id="metadata535"><rdf:RDF><cc:Work
       rdf:about=""><dc:format>image/svg+xml</dc:format><dc:type
         rdf:resource="http://purl.org/dc/dcmitype/StillImage" /></cc:Work></rdf:RDF></metadata><defs
   id="defs533" /><sodipodi:namedview
   pagecolor="#ffffff"
   bordercolor="#666666"
   borderopacity="1"
   objecttolerance="10"
   gridtolerance="10"
   guidetolerance="10"
   inkscape:pageopacity="0"
   inkscape:pageshadow="2"
   inkscape:window-width="1920"
   inkscape:window-height="1017"
   id="namedview531"
   showgrid="false"
   inkscape:zoom="0.4609375"
   inkscape:cx="256"
   inkscape:cy="256"
   inkscape:window-x="-4"
   inkscape:window-y="-4"
   inkscape:window-maximized="1"
   inkscape:current-layer="Capa_1" />
<g
   id="g498">
	<g
   id="g496">
		<g
   id="g494">
			<path
   d="M442.042,226c-16.532,0-29.982,13.458-29.982,30s13.45,30,29.982,30c16.532,0,29.982-13.458,29.982-30     S458.574,226,442.042,226z M442.042,266c-5.51,0-9.994-4.486-9.994-10c0-5.514,4.484-10,9.994-10c5.511,0,9.994,4.486,9.994,10     C452.036,261.514,447.552,266,442.042,266z"
   id="path488" />
			<path
   d="M320.805,137H50.969c-5.519,0-9.994,4.477-9.994,10v218c0,5.523,4.475,10,9.994,10h269.836c5.52,0,9.994-4.477,9.994-10     V147C330.799,141.477,326.324,137,320.805,137z M310.811,355H60.963V157h249.848V355z"
   id="path490" />
			<path
   d="M442.043,186c-19.94,0-38.563,8.323-51.826,23h-18.442v-63c0-27.57-22.416-50-49.97-50H49.97C22.416,96,0,118.43,0,146     v220c0,27.57,22.416,50,49.97,50h271.835c27.553,0,49.97-22.43,49.969-50v-63h18.442c13.263,14.677,31.886,23,51.826,23     C480.617,326,512,294.598,512,256S480.617,186,442.043,186z M442.043,306c-15.434,0-29.767-6.988-39.324-19.173     c-1.895-2.416-4.794-3.827-7.862-3.827h-33.076c-5.519,0-9.994,4.477-9.994,10v73c0,16.542-13.45,30-29.982,30H49.97     c-16.532,0-29.982-13.458-29.982-30V146c0-16.542,13.45-30,29.982-30h271.835c16.532,0,29.982,13.458,29.982,30v73     c0,5.523,4.475,10,9.994,10h33.076c3.068,0,5.967-1.411,7.862-3.827c9.557-12.184,23.89-19.173,39.324-19.173     c27.554,0,49.97,22.43,49.97,50S469.597,306,442.043,306z"
   id="path492" />
		</g>
	</g>
</g>
<g
   id="g500">
</g>
<g
   id="g502">
</g>
<g
   id="g504">
</g>
<g
   id="g506">
</g>
<g
   id="g508">
</g>
<g
   id="g510">
</g>
<g
   id="g512">
</g>
<g
   id="g514">
</g>
<g
   id="g516">
</g>
<g
   id="g518">
</g>
<g
   id="g520">
</g>
<g
   id="g522">
</g>
<g
   id="g524">
</g>
<g
   id="g526">
</g>
<g
   id="g528">
</g>
<path
   style="fill:#ffffff;stroke-width:2.16949153"
   d="M 38.960152,413.64191 C 23.287695,409.81977 8.9226795,396.56869 3.7708002,381.18135 2.044229,376.02452 1.3016949,337.90017 1.3016949,254.40868 c 0,-116.6398 0.1046433,-119.61424 4.5297072,-128.75521 5.5490879,-11.46288 18.6220499,-23.00485 29.8750509,-26.376328 11.895001,-3.563829 288.109057,-3.563829 300.004047,0 11.22853,3.364148 25.39223,15.816038 30.31281,26.649238 3.38072,7.443 4.00399,14.56652 4.0443,46.22277 l 0.0476,37.42373 h 9.9929 c 7.70976,0 11.79906,-1.4191 17.8983,-6.21122 14.07072,-11.05525 22.11797,-14.02414 40.76868,-15.0409 15.47932,-0.84386 19.15268,-0.288 29.54851,4.47137 16.11475,7.37758 28.46423,19.06805 35.69311,33.78838 8.18822,16.67389 8.41815,41.44637 0.53684,57.83983 -19.24513,40.03068 -68.13666,52.40806 -103.75014,26.26536 -8.60553,-6.31704 -12.58891,-7.82468 -20.67378,-7.82468 h -10.01442 v 36.95104 c 0,40.26849 -1.56452,47.63127 -12.58966,59.24764 -3.21805,3.39063 -9.7561,8.27199 -14.52898,10.84746 -8.62188,4.65241 -9.61028,4.68497 -152.94915,5.03986 -79.34915,0.19655 -147.338442,-0.39084 -151.087308,-1.30511 z M 337.57603,392.54795 c 3.35299,-1.98066 8.14091,-7.23901 10.63981,-11.68521 4.16957,-7.41873 4.54348,-11.48396 4.54348,-49.39639 0,-34.66403 0.54864,-41.86099 3.40921,-44.72155 2.57926,-2.57928 8.0259,-3.40921 22.37377,-3.40921 18.3762,0 19.16225,0.20808 25.33656,6.70717 24.88734,26.19643 67.31878,20.21297 83.83251,-11.82163 6.24393,-12.11245 6.30834,-31.77204 0.14319,-43.72753 -8.85476,-17.17156 -21.75749,-26.46173 -39.70345,-28.58716 -14.7217,-1.74357 -28.51261,2.62464 -39.88209,12.63246 l -9.53145,8.38991 h -20.38573 c -12.96291,0 -21.33368,-0.94794 -22.98913,-2.60339 -1.84279,-1.84279 -2.60339,-14.68774 -2.60339,-43.96605 0,-46.5408 -1.54203,-52.61835 -15.43181,-60.82039 C 330.17806,115.31716 326.08406,115.2 185.70847,115.2 c -139.902028,0 -144.486107,0.12997 -151.368114,4.29159 -3.903312,2.36038 -9.028736,8.28217 -11.38983,13.15954 -4.110794,8.49177 -4.292899,13.71047 -4.292899,123.0248 0,75.59388 0.781687,116.21996 2.314006,120.26419 2.788441,7.3595 10.188494,15.68308 16.126672,18.13927 2.386441,0.9871 69.598525,1.85661 149.360185,1.93224 131.37764,0.12453 145.59473,-0.20133 151.11754,-3.46368 z"
   id="path537"
   inkscape:connector-curvature="0" /><path
   style="fill:#ffffff;stroke-width:2.16949153"
   d="m 45.125424,371.85085 c -3.75416,-3.75416 -3.75416,-227.51364 0,-231.2678 3.76258,-3.76258 277.403526,-3.76258 281.166106,0 3.75415,3.75416 3.75415,227.51364 0,231.2678 -3.76258,3.76257 -277.403526,3.76257 -281.166106,0 z M 311.53898,255.1322 V 155.33559 H 185.70847 59.877966 v 99.79661 99.79661 H 185.70847 311.53898 Z"
   id="path539"
   inkscape:connector-curvature="0" /><path
   style="fill:#ffffff;stroke-width:2.16949153"
   d="m 431.94576,282.44254 c -16.36137,-7.27187 -23.38113,-27.43413 -14.47859,-41.58567 4.43607,-7.05162 16.33278,-13.92806 24.09649,-13.92806 15.50484,0 28.35247,12.67241 28.34009,27.9536 -0.0101,12.51301 -5.67553,22.19891 -15.79244,26.9997 -9.08928,4.31314 -13.47274,4.42397 -22.16555,0.56043 z m 18.00678,-19.06627 c 4.37304,-4.37303 2.99148,-12.22874 -2.82034,-16.03679 -5.02426,-3.29202 -5.82319,-3.29202 -10.84745,0 -5.84561,3.83019 -6.72328,7.81925 -3.17791,14.44382 2.54533,4.75601 12.72048,5.71819 16.8457,1.59297 z"
   id="path541"
   inkscape:connector-curvature="0" /></svg>