<?xml version="1.0" encoding="UTF-8" standalone="no"?>
<svg
   xmlns:dc="http://purl.org/dc/elements/1.1/"
   xmlns:cc="http://creativecommons.org/ns#"
   xmlns:rdf="http://www.w3.org/1999/02/22-rdf-syntax-ns#"
   xmlns:svg="http://www.w3.org/2000/svg"
   xmlns="http://www.w3.org/2000/svg"
   xmlns:sodipodi="http://sodipodi.sourceforge.net/DTD/sodipodi-0.dtd"
   xmlns:inkscape="http://www.inkscape.org/namespaces/inkscape"
   height="456pt"
   viewBox="0 -13 456.75885 456"
   width="456pt"
   version="1.1"
   id="svg3837"
   sodipodi:docname="card.svg"
   inkscape:version="0.92.4 (5da689c313, 2019-01-14)">
  <metadata
     id="metadata3843">
    <rdf:RDF>
      <cc:Work
         rdf:about="">
        <dc:format>image/svg+xml</dc:format>
        <dc:type
           rdf:resource="http://purl.org/dc/dcmitype/StillImage" />
      </cc:Work>
    </rdf:RDF>
  </metadata>
  <defs
     id="defs3841" />
  <sodipodi:namedview
     pagecolor="#ffffff"
     bordercolor="#666666"
     borderopacity="1"
     objecttolerance="10"
     gridtolerance="10"
     guidetolerance="10"
     inkscape:pageopacity="0"
     inkscape:pageshadow="2"
     inkscape:window-width="1920"
     inkscape:window-height="1017"
     id="namedview3839"
     showgrid="false"
     inkscape:zoom="0.38815789"
     inkscape:cx="304"
     inkscape:cy="304"
     inkscape:window-x="-4"
     inkscape:window-y="-4"
     inkscape:window-maximized="1"
     inkscape:current-layer="svg3837" />
  <path
     d="m150.355469 322.332031c-30.046875 0-54.402344 24.355469-54.402344 54.402344 0 30.042969 24.355469 54.398437 54.402344 54.398437 30.042969 0 54.398437-24.355468 54.398437-54.398437-.03125-30.03125-24.367187-54.371094-54.398437-54.402344zm0 88.800781c-19 0-34.402344-15.402343-34.402344-34.398437 0-19 15.402344-34.402344 34.402344-34.402344 18.996093 0 34.398437 15.402344 34.398437 34.402344 0 18.996094-15.402344 34.398437-34.398437 34.398437zm0 0"
     id="path3831" />
  <path
     d="m446.855469 94.035156h-353.101563l-7.199218-40.300781c-4.4375-24.808594-23.882813-44.214844-48.699219-48.601563l-26.101563-4.597656c-5.441406-.96875-10.632812 2.660156-11.601562 8.097656-.964844 5.441407 2.660156 10.632813 8.101562 11.601563l26.199219 4.597656c16.53125 2.929688 29.472656 15.871094 32.402344 32.402344l35.398437 199.699219c4.179688 23.894531 24.941406 41.324218 49.199219 41.300781h210c22.0625.066406 41.546875-14.375 47.902344-35.5l47-155.800781c.871093-3.039063.320312-6.3125-1.5-8.898438-1.902344-2.503906-4.859375-3.980468-8-4zm-56.601563 162.796875c-3.773437 12.6875-15.464844 21.367188-28.699218 21.300781h-210c-14.566407.039063-27.035157-10.441406-29.5-24.800781l-24.699219-139.398437h336.097656zm0 0"
     id="path3833" />
  <path
     d="m360.355469 322.332031c-30.046875 0-54.402344 24.355469-54.402344 54.402344 0 30.042969 24.355469 54.398437 54.402344 54.398437 30.042969 0 54.398437-24.355468 54.398437-54.398437-.03125-30.03125-24.367187-54.371094-54.398437-54.402344zm0 88.800781c-19 0-34.402344-15.402343-34.402344-34.398437 0-19 15.402344-34.402344 34.402344-34.402344 18.996093 0 34.398437 15.402344 34.398437 34.402344 0 18.996094-15.402344 34.398437-34.398437 34.398437zm0 0"
     id="path3835" />
  <path
     style="fill:#ffffff;stroke-width:2.5762713"
     d="m 184.44434,411.38138 c -18.49351,-5.73816 -35.68652,-20.87973 -42.66017,-37.57002 -1.86351,-4.46004 -14.56965,-71.1638 -28.23584,-148.23061 C 99.882129,148.51394 87.167971,82.495321 85.294643,78.872702 80.395523,69.398849 68.481176,58.027041 59.454463,54.209195 55.172043,52.397948 41.945894,49.071719 30.063021,46.817577 5.9425518,42.242001 1.5457627,39.772751 1.5457627,30.802198 c 0,-10.456893 8.7481073,-12.306184 35.0230693,-7.403639 29.764427,5.553631 42.098049,11.194593 56.199045,25.703449 13.930473,14.333401 19.788843,29.282823 26.037973,66.443752 l 4.65728,27.69492 h 236.02741 c 209.4536,0 236.67203,0.45153 241.75316,4.01049 3.14919,2.20577 5.72579,5.42167 5.72579,7.14645 0,3.39203 -62.16375,209.99306 -66.4519,220.85269 -4.13798,10.47932 -15.553,22.56685 -28.4976,30.17648 l -11.96575,7.03423 -154.57627,0.46197 c -85.01695,0.25402 -157.48208,-0.43964 -161.03363,-1.54161 z M 501.2672,384.16091 c 4.06878,-2.10404 9.70265,-7.06244 12.51972,-11.01863 2.81705,-3.95623 18.42238,-51.2161 34.67849,-105.02194 l 29.55656,-97.82881 -224.24648,-0.6583 c -123.33556,-0.36207 -224.50582,-0.36207 -224.82281,0 -1.90139,2.17174 33.56723,190.33701 37.274,197.74304 2.48218,4.95932 8.35144,11.62542 13.04282,14.81356 l 8.52976,5.79661 h 153.03508 c 130.30125,0 154.13405,-0.5683 160.43286,-3.82553 z"
     id="path3845"
     inkscape:connector-curvature="0"
     transform="matrix(0.75124811,0,0,0.75124811,0,-13.379425)" />
  <path
     style="fill:#ffffff;stroke-width:2.5762713"
     d="m 187.03729,589.02131 c -15.15354,-3.28168 -22.66496,-7.22773 -34.46808,-18.10746 -21.96597,-20.24753 -29.23406,-54.68435 -17.02385,-80.66045 6.46971,-13.76371 24.44883,-31.30544 38.12208,-37.19465 13.80554,-5.94619 40.27025,-5.41065 54.82048,1.10935 45.36166,20.32667 56.65105,80.2216 21.6305,114.75882 -16.9832,16.74881 -41.89142,24.68328 -63.08113,20.09439 z m 31.64207,-26.81927 c 16.84217,-7.20628 27.61217,-24.00797 27.61217,-43.07623 0,-43.19038 -52.98957,-62.52601 -81.70979,-29.81549 -25.43642,28.97048 -3.84792,76.42081 34.77558,76.43483 6.06755,0.002 14.76246,-1.5922 19.32204,-3.54311 z"
     id="path3847"
     inkscape:connector-curvature="0"
     transform="matrix(0.75124811,0,0,0.75124811,0,-13.379425)" />
  <path
     style="fill:#ffffff;stroke-width:2.5762713"
     d="m 462.19132,588.00459 c -31.6361,-8.77273 -53.53559,-37.42482 -53.58034,-70.10159 -0.0688,-50.20017 57.24296,-85.1879 101.98026,-62.25703 23.48313,12.03668 37.02796,31.95555 39.07553,57.46406 3.91063,48.71813 -41.54049,87.63237 -87.47545,74.89456 z m 40.36301,-28.13366 c 32.38421,-18.34182 31.61295,-64.96898 -1.35285,-81.78688 -19.37482,-9.88429 -46.96448,-4.10827 -58.63002,12.27446 -17.35976,24.37954 -10.02779,57.27223 15.59324,69.95441 14.4811,7.16801 31.24821,7.00106 44.38963,-0.44199 z"
     id="path3849"
     inkscape:connector-curvature="0"
     transform="matrix(0.75124811,0,0,0.75124811,0,-13.379425)" />
</svg>
