<?xml version="1.0" encoding="UTF-8" standalone="no"?>
<!-- Generator: Adobe Illustrator 19.0.0, SVG Export Plug-In . SVG Version: 6.00 Build 0)  -->

<svg
   xmlns:dc="http://purl.org/dc/elements/1.1/"
   xmlns:cc="http://creativecommons.org/ns#"
   xmlns:rdf="http://www.w3.org/1999/02/22-rdf-syntax-ns#"
   xmlns:svg="http://www.w3.org/2000/svg"
   xmlns="http://www.w3.org/2000/svg"
   xmlns:sodipodi="http://sodipodi.sourceforge.net/DTD/sodipodi-0.dtd"
   xmlns:inkscape="http://www.inkscape.org/namespaces/inkscape"
   version="1.1"
   id="Capa_1"
   x="0px"
   y="0px"
   viewBox="0 0 512 512"
   style="enable-background:new 0 0 512 512;"
   xml:space="preserve"
   sodipodi:docname="catalog.svg"
   inkscape:version="0.92.4 (5da689c313, 2019-01-14)"><metadata
   id="metadata3971"><rdf:RDF><cc:Work
       rdf:about=""><dc:format>image/svg+xml</dc:format><dc:type
         rdf:resource="http://purl.org/dc/dcmitype/StillImage" /></cc:Work></rdf:RDF></metadata><defs
   id="defs3969" /><sodipodi:namedview
   pagecolor="#ffffff"
   bordercolor="#666666"
   borderopacity="1"
   objecttolerance="10"
   gridtolerance="10"
   guidetolerance="10"
   inkscape:pageopacity="0"
   inkscape:pageshadow="2"
   inkscape:window-width="1920"
   inkscape:window-height="1017"
   id="namedview3967"
   showgrid="false"
   inkscape:zoom="0.4609375"
   inkscape:cx="256"
   inkscape:cy="256"
   inkscape:window-x="-4"
   inkscape:window-y="-4"
   inkscape:window-maximized="1"
   inkscape:current-layer="Capa_1" />
<g
   id="g3916">
	<g
   id="g3914">
		<path
   d="M176.792,0H59.208C26.561,0,0,26.561,0,59.208v117.584C0,209.439,26.561,236,59.208,236h117.584    C209.439,236,236,209.439,236,176.792V59.208C236,26.561,209.439,0,176.792,0z M196,176.792c0,10.591-8.617,19.208-19.208,19.208    H59.208C48.617,196,40,187.383,40,176.792V59.208C40,48.617,48.617,40,59.208,40h117.584C187.383,40,196,48.617,196,59.208    V176.792z"
   id="path3912" />
	</g>
</g>
<g
   id="g3922">
	<g
   id="g3920">
		<path
   d="M452,0H336c-33.084,0-60,26.916-60,60v116c0,33.084,26.916,60,60,60h116c33.084,0,60-26.916,60-60V60    C512,26.916,485.084,0,452,0z M472,176c0,11.028-8.972,20-20,20H336c-11.028,0-20-8.972-20-20V60c0-11.028,8.972-20,20-20h116    c11.028,0,20,8.972,20,20V176z"
   id="path3918" />
	</g>
</g>
<g
   id="g3928">
	<g
   id="g3926">
		<path
   d="M176.792,276H59.208C26.561,276,0,302.561,0,335.208v117.584C0,485.439,26.561,512,59.208,512h117.584    C209.439,512,236,485.439,236,452.792V335.208C236,302.561,209.439,276,176.792,276z M196,452.792    c0,10.591-8.617,19.208-19.208,19.208H59.208C48.617,472,40,463.383,40,452.792V335.208C40,324.617,48.617,316,59.208,316h117.584    c10.591,0,19.208,8.617,19.208,19.208V452.792z"
   id="path3924" />
	</g>
</g>
<g
   id="g3934">
	<g
   id="g3932">
		<path
   d="M452,276H336c-33.084,0-60,26.916-60,60v116c0,33.084,26.916,60,60,60h116c33.084,0,60-26.916,60-60V336    C512,302.916,485.084,276,452,276z M472,452c0,11.028-8.972,20-20,20H336c-11.028,0-20-8.972-20-20V336c0-11.028,8.972-20,20-20    h116c11.028,0,20,8.972,20,20V452z"
   id="path3930" />
	</g>
</g>
<g
   id="g3936">
</g>
<g
   id="g3938">
</g>
<g
   id="g3940">
</g>
<g
   id="g3942">
</g>
<g
   id="g3944">
</g>
<g
   id="g3946">
</g>
<g
   id="g3948">
</g>
<g
   id="g3950">
</g>
<g
   id="g3952">
</g>
<g
   id="g3954">
</g>
<g
   id="g3956">
</g>
<g
   id="g3958">
</g>
<g
   id="g3960">
</g>
<g
   id="g3962">
</g>
<g
   id="g3964">
</g>
<path
   style="fill:#ffffff;stroke-width:2.16949153"
   d="M 40.820372,231.57508 C 24.366134,225.79105 15.081983,217.16604 6.6279018,199.81017 1.3660073,189.00772 1.3439941,188.67399 1.3228885,119.38308 1.2983539,38.834948 1.9218109,35.186825 18.554318,18.554318 35.186825,1.9218109 38.834948,1.298354 119.38308,1.3228885 c 68.35929,0.020822 69.77068,0.1101589 80.47255,5.0936977 13.52339,6.2974408 24.22228,16.7962508 30.13618,29.5726208 4.30904,9.309238 4.53022,13.335367 4.53022,82.465033 0,65.04803 -0.40376,73.53713 -3.84592,80.86188 -5.63098,11.98245 -17.62906,24.31346 -29.30243,30.11555 -10.02305,4.9818 -11.7221,5.10191 -79.66521,5.63189 -62.940335,0.49096 -70.494366,0.1651 -80.888098,-3.48848 z M 186.45191,194.14721 c 9.47617,-4.31764 10.10402,-9.16837 10.10402,-78.06316 V 51.002774 l -5.18133,-5.181336 c -2.84974,-2.849736 -8.4633,-5.788154 -12.47458,-6.529818 -4.01128,-0.741667 -34.36412,-1.050435 -67.45076,-0.686154 l -60.157512,0.662331 -6.011976,6.011975 -6.011975,6.011976 -0.662331,60.157512 c -0.364281,33.08664 -0.05552,63.43948 0.686154,67.45076 0.741664,4.01128 3.680082,9.62484 6.529818,12.47458 l 5.181336,5.18133 h 65.081276 c 43.07608,0 66.86877,-0.81443 70.36786,-2.40872 z"
   id="path3973"
   inkscape:connector-curvature="0" /><path
   style="fill:#ffffff;stroke-width:2.16949153"
   d="M 42.266648,508.13705 C 23.470651,501.4203 9.9124573,488.01895 3.815281,470.1305 0.31737687,459.86803 0.63367702,326.17841 4.1786097,316.5634 8.9512309,303.61851 19.725401,291.08342 31.806251,284.42034 l 11.800529,-6.50848 69.02063,-0.65582 c 58.27001,-0.55368 70.88348,-0.11429 80.9804,2.82097 14.4707,4.20674 28.7805,16.59323 35.92494,31.09641 4.90522,9.9576 4.98928,11.353 4.98928,82.80624 0,81.71373 0.18268,80.61022 -16.30819,98.50073 -16.31042,17.69472 -21.5723,18.66741 -100.38336,18.55659 -49.664952,-0.0699 -69.807362,-0.84284 -75.563832,-2.89993 z m 148.964172,-41.38081 5.32511,-5.32512 V 393.97966 326.5282 l -5.32511,-5.32512 -5.32512,-5.32511 H 118.67383 51.441957 l -6.087079,5.23588 -6.087081,5.23589 v 67.62992 67.62992 l 6.087081,5.23589 6.087079,5.23589 h 67.231873 67.23187 z"
   id="path3975"
   inkscape:connector-curvature="0" /><path
   style="fill:#ffffff;stroke-width:2.16949153"
   d="m 323.47119,233.63968 c -11.91577,-3.03928 -24.39574,-10.7983 -32.38941,-20.13711 -13.62582,-15.91871 -14.56769,-22.79081 -13.82574,-100.87516 0.62673,-65.958935 0.86386,-69.405576 5.34572,-77.698596 6.70021,-12.397757 17.50033,-22.654352 30.02197,-28.5110721 10.67279,-4.9919651 11.98277,-5.0736599 81.35593,-5.0736599 69.35492,0 70.68669,0.08299 81.40139,5.0725042 12.83988,5.9791448 23.21653,15.7831568 29.86884,28.2205328 4.61657,8.631257 4.8223,11.573645 5.4534,77.990291 0.74206,78.09639 -0.1985,84.95481 -13.83595,100.88708 -4.35417,5.08686 -12.9326,11.89453 -19.06319,15.12818 l -11.14652,5.87936 -68.33899,0.38886 c -37.58644,0.21392 -71.26779,-0.35818 -74.84745,-1.27121 z M 461.9189,194.03207 c 9.91469,-5.2806 10.02096,-6.07214 10.09346,-75.17808 0.0452,-43.094033 -0.7392,-67.279868 -2.27512,-70.149773 -5.00792,-9.357388 -13.3877,-10.521166 -75.75758,-10.521166 -62.36988,0 -70.74965,1.163778 -75.75758,10.521166 -1.53207,2.862707 -2.34411,27.284883 -2.34411,70.499283 v 66.11927 l 6.67492,5.61658 6.67494,5.61658 H 393.204 c 44.47738,0 65.42045,-0.76923 68.7149,-2.52386 z"
   id="path3977"
   inkscape:connector-curvature="0" /><path
   style="fill:#ffffff;stroke-width:2.16949153"
   d="m 317.21269,507.57595 c -15.1153,-4.64126 -32.35074,-22.24287 -36.95202,-37.73705 -5.02851,-16.93282 -5.02851,-134.78565 0,-151.71848 4.77463,-16.07791 21.78184,-33.08512 37.85975,-37.85975 16.93283,-5.02851 134.78566,-5.02851 151.71848,0 16.07791,4.77463 33.08512,21.78184 37.85976,37.85975 5.04554,16.99017 5.02619,134.73015 -0.0249,151.94005 -4.69817,16.00717 -21.65166,32.83231 -37.96399,37.67654 -16.28086,4.83491 -136.64056,4.70778 -152.49701,-0.16097 z m 149.54355,-40.81971 5.32512,-5.32512 V 393.97966 326.5282 l -5.32512,-5.32512 -5.32512,-5.32511 H 393.97966 326.5282 l -5.32512,5.32511 -5.32511,5.32512 v 67.45146 67.45146 l 5.32511,5.32512 5.32512,5.32512 h 67.45146 67.45146 z"
   id="path3979"
   inkscape:connector-curvature="0" /></svg>