<?xml version="1.0" encoding="UTF-8" standalone="no"?>
<svg
   xmlns:dc="http://purl.org/dc/elements/1.1/"
   xmlns:cc="http://creativecommons.org/ns#"
   xmlns:rdf="http://www.w3.org/1999/02/22-rdf-syntax-ns#"
   xmlns:svg="http://www.w3.org/2000/svg"
   xmlns="http://www.w3.org/2000/svg"
   xmlns:sodipodi="http://sodipodi.sourceforge.net/DTD/sodipodi-0.dtd"
   xmlns:inkscape="http://www.inkscape.org/namespaces/inkscape"
   viewBox="0 0 48 24"
   width="960"
   height="480"
   version="1.1"
   id="svg827"
   sodipodi:docname="collection-add.svg"
   inkscape:version="0.92.4 (5da689c313, 2019-01-14)"
   style="fill:#000000">
  <metadata
     id="metadata833">
    <rdf:RDF>
      <cc:Work
         rdf:about="">
        <dc:format>image/svg+xml</dc:format>
        <dc:type
           rdf:resource="http://purl.org/dc/dcmitype/StillImage" />
        <dc:title></dc:title>
      </cc:Work>
    </rdf:RDF>
  </metadata>
  <defs
     id="defs831" />
  <sodipodi:namedview
     pagecolor="#ffffff"
     bordercolor="#666666"
     borderopacity="1"
     objecttolerance="10"
     gridtolerance="10"
     guidetolerance="10"
     inkscape:pageopacity="0"
     inkscape:pageshadow="2"
     inkscape:window-width="1920"
     inkscape:window-height="1017"
     id="namedview829"
     showgrid="false"
     inkscape:zoom="0.624611"
     inkscape:cx="335.70941"
     inkscape:cy="436.39035"
     inkscape:window-x="-4"
     inkscape:window-y="-4"
     inkscape:window-maximized="1"
     inkscape:current-layer="svg827" />
  <path
     d="M 10.843903,5.2820427 V 11.076047 H 5.1219431 v 1.287557 h 5.7219599 v 5.794005 h 1.271546 v -5.794005 h 5.72196 v -1.287557 h -5.72196 V 5.2820427 Z"
     id="path825"
     inkscape:connector-curvature="0"
     style="fill-rule:evenodd;stroke-width:0.6397633" />
  <path
     style="fill:#ffffff;fill-opacity:1;stroke:#000000;stroke-width:0.00181065;stroke-miterlimit:4;stroke-dasharray:none;stroke-opacity:1"
     d="m 10.846302,15.247245 v -2.897003 h -2.8609798 -2.86098 v -0.628594 -0.628595 h 2.86098 2.8609798 V 8.1960504 5.2990482 h 0.62972 0.62972 l 0.0046,2.8924472 0.0046,2.8924476 2.856482,0.0046 2.856481,0.0046 v 0.628538 0.628539 h -2.86098 -2.860979 v 2.897003 2.897002 h -0.629824 -0.629775 z"
     id="path835"
     inkscape:connector-curvature="0" />
  <path
     style="stroke-width:0.04113278"
     inkscape:connector-curvature="0"
     d="m 30.852014,16.832087 c -1.220452,0 -2.209728,1.014499 -2.209728,2.266066 0,1.251404 0.989276,2.265903 2.209728,2.265903 1.220293,0 2.209569,-1.014499 2.209569,-2.265903 -0.0013,-1.250916 -0.989752,-2.264764 -2.209569,-2.266066 z m 0,3.698893 c -0.771747,0 -1.397364,-0.641567 -1.397364,-1.432827 0,-0.791423 0.625617,-1.43299 1.397364,-1.43299 0.771588,0 1.397204,0.641567 1.397204,1.43299 0,0.79126 -0.625616,1.432827 -1.397204,1.432827 z m 0,0"
     id="path3831" />
  <path
     style="stroke-width:0.04113278"
     inkscape:connector-curvature="0"
     d="M 42.895324,7.3226484 H 28.552957 L 28.260538,5.6439665 C 28.080294,4.6105936 27.290459,3.8022491 26.282461,3.6195254 l -1.0602,-0.19151 c -0.22102,-0.040352 -0.431886,0.1108057 -0.471235,0.3372984 -0.0392,0.2266555 0.108051,0.4428974 0.329071,0.4832495 l 1.064167,0.1915099 c 0.67147,0.1220328 1.197127,0.6610919 1.316126,1.3496817 l 1.437822,8.3182361 c 0.169772,0.995299 1.013076,1.721313 1.998386,1.720337 h 8.529832 c 0.896141,0.0028 1.687562,-0.598774 1.94571,-1.478712 l 1.909057,-6.4896985 c 0.03538,-0.1265885 0.01301,-0.26294 -0.06092,-0.3706539 -0.07727,-0.1042975 -0.197379,-0.1658017 -0.324946,-0.1666152 z m -2.299056,6.7811136 c -0.15327,0.528482 -0.628155,0.890024 -1.165711,0.887258 h -8.529833 c -0.591662,0.0016 -1.098121,-0.434924 -1.198239,-1.033047 L 28.699247,8.1514939 h 13.651697 z m 0,0"
     id="path3833" />
  <path
     style="stroke-width:0.04113278"
     inkscape:connector-curvature="0"
     d="m 39.381846,16.832087 c -1.220452,0 -2.209728,1.014499 -2.209728,2.266066 0,1.251404 0.989276,2.265903 2.209728,2.265903 1.220292,0 2.209569,-1.014499 2.209569,-2.265903 -0.0013,-1.250916 -0.989753,-2.264764 -2.209569,-2.266066 z m 0,3.698893 c -0.771747,0 -1.397363,-0.641567 -1.397363,-1.432827 0,-0.791423 0.625616,-1.43299 1.397363,-1.43299 0.771588,0 1.397205,0.641567 1.397205,1.43299 0,0.79126 -0.625617,1.432827 -1.397205,1.432827 z m 0,0"
     id="path3835" />
  <path
     style="fill:#ffffff;stroke-width:0.07960916"
     d="M 30.373042,15.721514 C 29.808725,15.541954 29.284091,15.068138 29.071294,14.54586 29.01443,14.406294 28.62671,12.318976 28.209695,9.907373 27.79268,7.4957711 27.404714,5.429893 27.347552,5.3165327 27.198058,5.0200735 26.834499,4.6642228 26.559054,4.5447534 26.428379,4.4880754 26.024791,4.3839897 25.662192,4.3134523 24.926171,4.1702717 24.792006,4.093003 24.792006,3.8122933 c 0,-0.3272209 0.266943,-0.3850896 1.068707,-0.2316773 0.908243,0.1737861 1.284597,0.3503051 1.714879,0.8043215 0.42508,0.4485259 0.603844,0.9163286 0.794533,2.0791816 l 0.142114,0.8666393 h 7.20223 c 6.391347,0 7.221901,0.014129 7.376948,0.1254977 0.0961,0.069023 0.174719,0.1696569 0.174719,0.2236293 0,0.1061446 -1.896888,6.5711786 -2.027738,6.9110016 -0.126268,0.327923 -0.474591,0.70617 -0.869587,0.944294 l -0.365127,0.220117 -4.7168,0.01446 c -2.594239,0.0079 -4.805468,-0.01375 -4.913842,-0.04824 z m 9.667654,-0.851793 c 0.124156,-0.06584 0.296071,-0.221001 0.382032,-0.344799 0.08596,-0.1238 0.562147,-1.602673 1.058192,-3.286384 l 0.9019,-3.0612951 -6.842742,-0.020601 c -3.763509,-0.011328 -6.850656,-0.011328 -6.860329,0 -0.05802,0.067959 1.024283,5.9560931 1.137393,6.1878451 0.07574,0.155189 0.254839,0.363787 0.397993,0.463552 l 0.260281,0.181388 h 4.66977 c 3.976063,0 4.703306,-0.01778 4.89551,-0.119709 z"
     id="path3845"
     inkscape:connector-curvature="0" />
  <path
     style="fill:#ffffff;stroke-width:0.07960916"
     d="m 30.452165,21.280286 c -0.462401,-0.102692 -0.691607,-0.226172 -1.051772,-0.566625 -0.670278,-0.633593 -0.89206,-1.711202 -0.519473,-2.524055 0.19742,-0.4307 0.746041,-0.979622 1.163272,-1.16391 0.421268,-0.186069 1.228822,-0.169311 1.672813,0.03472 1.384183,0.63607 1.728672,2.510324 0.660042,3.591075 -0.518232,0.524109 -1.278291,0.772398 -1.924882,0.6288 z m 0.965538,-0.839238 c 0.513928,-0.225501 0.842569,-0.751267 0.842569,-1.347957 0,-1.351529 -1.616944,-1.956586 -2.493324,-0.932997 -0.776177,0.906554 -0.117417,2.391387 1.061155,2.391826 0.185148,6.2e-5 0.450467,-0.04983 0.5896,-0.110872 z"
     id="path3847"
     inkscape:connector-curvature="0" />
  <path
     style="fill:#ffffff;stroke-width:0.07960916"
     d="m 38.84832,21.24847 c -0.965356,-0.274519 -1.633605,-1.171111 -1.634971,-2.193644 -0.002,-1.570881 1.746733,-2.66573 3.111864,-1.948169 0.716574,0.376656 1.129886,0.999965 1.192367,1.798186 0.11933,1.524504 -1.267583,2.742224 -2.66926,2.343627 z m 1.231652,-0.880369 c 0.988185,-0.573958 0.96465,-2.033032 -0.04128,-2.559304 -0.591211,-0.309302 -1.433093,-0.128557 -1.789059,0.384097 -0.529723,0.762893 -0.305991,1.792183 0.475818,2.189038 0.441882,0.224305 0.953519,0.21908 1.354522,-0.01383 z"
     id="path3849"
     inkscape:connector-curvature="0" />
</svg>
