<?xml version="1.0" encoding="UTF-8" standalone="no"?>
<svg
   xmlns:dc="http://purl.org/dc/elements/1.1/"
   xmlns:cc="http://creativecommons.org/ns#"
   xmlns:rdf="http://www.w3.org/1999/02/22-rdf-syntax-ns#"
   xmlns:svg="http://www.w3.org/2000/svg"
   xmlns="http://www.w3.org/2000/svg"
   xmlns:sodipodi="http://sodipodi.sourceforge.net/DTD/sodipodi-0.dtd"
   xmlns:inkscape="http://www.inkscape.org/namespaces/inkscape"
   data-name="Layer 2"
   id="Layer_2"
   viewBox="0 0 32 32"
   version="1.1"
   sodipodi:docname="home.svg"
   inkscape:version="0.92.4 (5da689c313, 2019-01-14)">
  <metadata
     id="metadata676">
    <rdf:RDF>
      <cc:Work
         rdf:about="">
        <dc:format>image/svg+xml</dc:format>
        <dc:type
           rdf:resource="http://purl.org/dc/dcmitype/StillImage" />
      </cc:Work>
    </rdf:RDF>
  </metadata>
  <sodipodi:namedview
     pagecolor="#ffffff"
     bordercolor="#666666"
     borderopacity="1"
     objecttolerance="10"
     gridtolerance="10"
     guidetolerance="10"
     inkscape:pageopacity="0"
     inkscape:pageshadow="2"
     inkscape:window-width="1920"
     inkscape:window-height="1017"
     id="namedview674"
     showgrid="false"
     inkscape:zoom="7.375"
     inkscape:cx="16"
     inkscape:cy="16"
     inkscape:window-x="-4"
     inkscape:window-y="-4"
     inkscape:window-maximized="1"
     inkscape:current-layer="Layer_2" />
  <defs
     id="defs663">
    <style
       id="style661">.cls-1{fill:#101820;}</style>
  </defs>
  <title
     id="title665" />
  <path
     class="cls-1"
     d="M30,15a1,1,0,0,1-.58-.19L16,5.23,2.58,14.81a1,1,0,0,1-1.16-1.62l14-10a1,1,0,0,1,1.16,0l14,10A1,1,0,0,1,30,15Z"
     id="path667" />
  <path
     class="cls-1"
     d="M5,9A1,1,0,0,1,4,8V4A1,1,0,0,1,5,3H9A1,1,0,0,1,9,5H6V8A1,1,0,0,1,5,9Z"
     id="path669" />
  <path
     class="cls-1"
     d="M25,29H20a1,1,0,0,1-1-1V21H13v7a1,1,0,0,1-1,1H7a3,3,0,0,1-3-3V16a1,1,0,0,1,2,0V26a1,1,0,0,0,1,1h4V20a1,1,0,0,1,1-1h8a1,1,0,0,1,1,1v7h4a1,1,0,0,0,1-1V16a1,1,0,0,1,2,0V26A3,3,0,0,1,25,29Z"
     id="path671" />
  <path
     style="fill:#ffffff;stroke-width:0.13559322"
     d="M 4.2860188,8.5267534 C 4.0119495,8.1783307 3.9986995,8.0359097 4.0388893,5.8704149 4.0943577,2.8816836 3.9003756,3.0644068 7.0177951,3.0644068 c 2.2805997,0 2.2985798,0.00235 2.642033,0.3458065 C 9.9269595,3.6773446 9.9859399,3.8393025 9.9190694,4.1220777 9.7466588,4.851149 9.4377948,4.9627119 7.5917581,4.9627119 H 5.9118644 v 1.6949152 c 0,1.5141244 -0.028926,1.7238418 -0.2711864,1.9661017 C 5.2461513,9.0182555 4.6384126,8.9747496 4.2860188,8.5267534 Z"
     id="path678"
     inkscape:connector-curvature="0" />
  <path
     style="fill:#ffffff;stroke-width:0.13559322"
     d="M 29.59658,14.794074 C 29.413605,14.699146 26.297683,12.502799 22.672308,9.9133032 19.046933,7.3238076 16.000358,5.2359664 15.90214,5.2736559 15.80392,5.3113459 12.726351,7.4839201 9.063093,10.1016 c -4.5917864,3.281184 -6.7682683,4.759417 -7.0075443,4.759417 -0.7431575,0 -1.18671348,-1.044879 -0.6498165,-1.530764 C 2.2206646,12.592749 15.768599,3.0644068 16.002292,3.0644068 c 0.159185,0 3.497708,2.296935 7.538326,5.1864407 6.901154,4.9351155 7.254707,5.2084095 7.296037,5.6398015 0.07311,0.763103 -0.585585,1.242979 -1.240075,0.903425 z"
     id="path680"
     inkscape:connector-curvature="0" />
  <path
     style="fill:#ffffff;stroke-width:0.13559322"
     d="M 6.079848,28.781713 C 5.4186856,28.541929 4.7285827,27.936442 4.3861147,27.295654 4.0873303,26.736602 4.0805711,26.621758 4.0413201,21.437288 c -0.02202,-2.908474 -0.00667,-5.421157 0.034102,-5.583739 0.1154652,-0.460384 0.4584841,-0.721346 0.948169,-0.721346 0.8267055,0 0.8138786,-0.08565 0.8882734,5.931037 l 0.067797,5.483048 0.3201063,0.259059 c 0.286001,0.231459 0.5568751,0.25906 2.5423729,0.25906 h 2.2222673 v -3.705178 c 0,-3.697661 6.36e-4,-3.705776 0.313824,-4 0.308598,-0.289913 0.385464,-0.294822 4.616332,-0.294822 h 4.302509 l 0.332819,0.332819 0.332821,0.33282 v 3.66718 3.667181 h 2.095315 c 2.320684,0 2.697261,-0.09262 2.914884,-0.71689 0.08978,-0.257552 0.142343,-2.320679 0.142343,-5.587413 0,-4.845216 0.01599,-5.193557 0.247965,-5.403496 0.331493,-0.299996 1.010983,-0.285129 1.294656,0.02833 0.208254,0.230117 0.225301,0.762949 0.190507,5.954596 l -0.03821,5.701864 -0.4128,0.587776 c -0.227041,0.323278 -0.684668,0.74032 -1.016949,0.92676 -0.586096,0.328854 -0.694204,0.340274 -3.617971,0.382172 l -3.013823,0.04319 -0.342109,-0.34211 -0.342111,-0.34211 v -3.66718 -3.66718 h -3.050847 -3.050847 v 3.66718 3.66718 l -0.33282,0.33282 -0.33282,0.33282 -2.8875193,-0.01032 C 7.5522428,28.945765 6.3642708,28.884865 6.079848,28.781713 Z"
     id="path682"
     inkscape:connector-curvature="0" />
</svg>
