<?xml version="1.0" encoding="UTF-8" standalone="no"?>
<!-- Generator: Adobe Illustrator 19.0.0, SVG Export Plug-In . SVG Version: 6.00 Build 0)  -->

<svg
   xmlns:dc="http://purl.org/dc/elements/1.1/"
   xmlns:cc="http://creativecommons.org/ns#"
   xmlns:rdf="http://www.w3.org/1999/02/22-rdf-syntax-ns#"
   xmlns:svg="http://www.w3.org/2000/svg"
   xmlns="http://www.w3.org/2000/svg"
   xmlns:sodipodi="http://sodipodi.sourceforge.net/DTD/sodipodi-0.dtd"
   xmlns:inkscape="http://www.inkscape.org/namespaces/inkscape"
   version="1.1"
   id="Capa_1"
   x="0px"
   y="0px"
   viewBox="0 0 463 463"
   style="enable-background:new 0 0 463 463;"
   xml:space="preserve"
   sodipodi:docname="kitchen.svg"
   inkscape:version="0.92.4 (5da689c313, 2019-01-14)"><metadata
   id="metadata760"><rdf:RDF><cc:Work
       rdf:about=""><dc:format>image/svg+xml</dc:format><dc:type
         rdf:resource="http://purl.org/dc/dcmitype/StillImage" /></cc:Work></rdf:RDF></metadata><defs
   id="defs758" /><sodipodi:namedview
   pagecolor="#ffffff"
   bordercolor="#666666"
   borderopacity="1"
   objecttolerance="10"
   gridtolerance="10"
   guidetolerance="10"
   inkscape:pageopacity="0"
   inkscape:pageshadow="2"
   inkscape:window-width="1920"
   inkscape:window-height="1017"
   id="namedview756"
   showgrid="false"
   inkscape:zoom="0.50971922"
   inkscape:cx="231.5"
   inkscape:cy="231.5"
   inkscape:window-x="-4"
   inkscape:window-y="-4"
   inkscape:window-maximized="1"
   inkscape:current-layer="Capa_1" />
<path
   d="M447.5,184h-16c-8.547,0-15.5,6.953-15.5,15.5v8.954l-25,1.563V55h40.5c12.958,0,23.5-10.542,23.5-23.5V15h0.5  c4.142,0,7.5-3.358,7.5-7.5S459.642,0,455.5,0h-288c-4.142,0-7.5,3.358-7.5,7.5s3.358,7.5,7.5,7.5h0.5v16.5  c0,12.958,10.542,23.5,23.5,23.5H328v158.954l-23.008,1.438c-10.863-15.257-23.071-30.489-36.8-45.373  c-5.874-6.368-14.299-10.02-23.118-10.02H23.5C10.542,160,0,170.542,0,183.5v232C0,428.458,10.542,439,23.5,439H24v8.5  c0,8.547,6.953,15.5,15.5,15.5h27.719c5.194,0,10.015-2.58,12.896-6.902L91.514,439h207.973l11.398,17.098  c2.881,4.322,7.703,6.902,12.896,6.902H351.5c8.547,0,15.5-6.953,15.5-15.5v-8.594c6.233-0.53,11.998-3.496,16.047-8.335  c4.458-5.328,6.313-12.305,5.087-19.14c-4.047-22.586-13.755-64.417-35.554-112.848l63.42,3.964v8.954c0,8.547,6.953,15.5,15.5,15.5  h16c8.547,0,15.5-6.953,15.5-15.5v-112C463,190.953,456.047,184,447.5,184z M431,231h17v17h-17V231z M431,263h17v17h-17V263z   M431,199.5c0-0.276,0.224-0.5,0.5-0.5h16c0.276,0,0.5,0.224,0.5,0.5V216h-17v-0.5V199.5z M183,31.5V15h257v16.5  c0,4.687-3.813,8.5-8.5,8.5h-48h-48h-144C186.813,40,183,36.187,183,31.5z M343,55h33v155.954l-33,2.063V55z M15,415.5v-232  c0-4.687,3.813-8.5,8.5-8.5h188.932c95.591,93.764,121.136,203.065,130.02,249h-38.906c-0.005,0-0.01,0-0.015,0H87.472  c-0.007,0-0.014,0-0.021,0H23.5C18.813,424,15,420.187,15,415.5z M67.635,447.777c-0.093,0.14-0.249,0.223-0.416,0.223H39.5  c-0.276,0-0.5-0.224-0.5-0.5V439h34.486L67.635,447.777z M351.5,448h-27.719c-0.167,0-0.323-0.083-0.416-0.223L317.514,439h33.945  c0.011,0,0.022,0.001,0.033,0.001c0.011,0,0.021-0.001,0.032-0.001H352v8.5C352,447.776,351.776,448,351.5,448z M371.543,420.945  c-1.625,1.941-4.015,3.055-6.559,3.055h-7.258c-8.302-43.754-32.105-152.56-124.221-249h11.57c4.642,0,9.049,1.892,12.092,5.189  c83.217,90.217,108.986,193.618,116.203,233.887C373.815,416.564,373.167,419.004,371.543,420.945z M345.291,283.097  c-8.504-17.303-18.559-35.244-30.434-53.292L416,223.483v64.033L345.291,283.097z M447.5,312h-16c-0.276,0-0.5-0.224-0.5-0.5v-16  V295h17v16.5C448,311.776,447.776,312,447.5,312z"
   id="path723" />
<g
   id="g725">
</g>
<g
   id="g727">
</g>
<g
   id="g729">
</g>
<g
   id="g731">
</g>
<g
   id="g733">
</g>
<g
   id="g735">
</g>
<g
   id="g737">
</g>
<g
   id="g739">
</g>
<g
   id="g741">
</g>
<g
   id="g743">
</g>
<g
   id="g745">
</g>
<g
   id="g747">
</g>
<g
   id="g749">
</g>
<g
   id="g751">
</g>
<g
   id="g753">
</g>
<path
   style="fill:#ffffff;stroke-width:1.96186435"
   d="m 29.534976,457.39976 c -3.260269,-3.26027 -4.815484,-7.01155 -4.815484,-11.6153 0,-5.93878 -0.73487,-6.96122 -5.803368,-8.07444 -3.191852,-0.70105 -8.488886,-4.33329 -11.7711865,-8.07162 L 1.1771186,422.84144 V 299.46277 176.0841 l 5.0307617,-5.97872 c 2.7669188,-3.2883 8.2846627,-6.88247 12.2616527,-7.98704 10.306123,-2.86244 224.394817,-2.7169 234.807157,0.15962 4.66361,1.28838 10.80185,5.26523 15.12933,9.80202 7.32849,7.68294 31.78293,37.43631 34.44769,41.91203 0.98633,1.65662 5.24434,2.11699 13.69311,1.48048 l 12.26165,-0.92374 V 134.3481 54.147458 l -71.11758,-0.0073 c -66.95887,-0.0069 -71.48311,-0.230213 -77.36843,-3.818747 -8.0363,-4.900076 -10.05081,-8.871683 -11.63747,-22.943251 -0.82646,-7.329524 -2.62337,-12.763614 -4.96482,-15.014196 -2.87366,-2.7621534 -3.22357,-4.3605198 -1.61328,-7.3693828 2.01744,-3.7696148 4.84022,-3.83271 149.39727,-3.3393538 139.21482,0.4751237 147.46097,0.6967526 149.51651,4.0185022 1.75432,2.8350074 1.35999,4.1643829 -2.03688,6.8665254 -3.29774,2.623278 -4.39138,6.03382 -5.03668,15.706811 -0.71561,10.727202 -1.65157,13.18398 -7.10047,18.637711 l -6.2762,6.281782 -25.47209,0.646374 -25.47208,0.646373 v 78.591934 78.59194 l 10.29979,-1.23716 c 5.66488,-0.68043 11.84476,-1.24482 13.73305,-1.2542 2.66853,-0.0137 3.43326,-1.68885 3.43326,-7.52253 0,-11.97753 5.831,-16.03689 23.03596,-16.03689 12.73874,0 14.30898,0.45042 18.0208,5.16924 3.91583,4.97817 4.06381,7.38932 4.00374,65.23199 -0.0655,63.11491 -0.15578,63.7923 -9.1275,68.57069 -5.96087,3.17477 -21.29272,2.85222 -27.94523,-0.58791 -6.33458,-3.27574 -7.98777,-6.52377 -7.98777,-15.6936 v -6.47172 l -21.09004,-1.25932 c -11.59952,-0.69262 -26.29593,-1.78263 -32.65869,-2.42225 -10.66183,-1.07179 -11.47729,-0.87609 -10.40311,2.49637 0.64105,2.01262 5.61491,15.25338 11.05304,29.42391 12.03009,31.34774 21.99193,68.44674 22.393,83.39406 0.33642,12.53795 -3.00911,17.96305 -13.92661,22.58336 -5.48073,2.31943 -6.37606,3.67139 -6.37606,9.62771 0,4.7413 -1.52058,8.44997 -4.8155,11.74486 -4.40803,4.40805 -6.32789,4.81549 -22.69041,4.81549 -9.8312,0 -19.47276,-0.85513 -21.42566,-1.90028 -1.9529,-1.04516 -6.40107,-6.34219 -9.88485,-11.77118 l -6.33414,-9.87091 -105.2457,0.004 -105.245691,0.004 -5.592239,8.8517 c -8.47743,13.4177 -11.252503,14.68282 -32.208888,14.68282 -16.803574,0 -18.681801,-0.39143 -23.105846,-4.81549 z m 41.50012,-12.35082 c 1.433421,-1.88829 2.634296,-4.09539 2.668613,-4.90466 0.03431,-0.80927 -7.883158,-1.4714 -17.594387,-1.4714 -17.525988,0 -17.65678,0.0363 -17.65678,4.90466 0,4.80365 0.3087,4.90466 14.988168,4.90466 11.973692,0 15.51234,-0.69051 17.594386,-3.43326 z m 281.315754,-1.4714 c 0,-4.8707 -0.12301,-4.90466 -17.77257,-4.90466 -18.16314,0 -18.58,0.23462 -13.07159,7.35699 1.21337,1.56889 7.11082,2.45233 16.37039,2.45233 14.13077,0 14.47377,-0.11614 14.47377,-4.90466 z m -9.80932,-22.47704 c 0,-6.77257 -13.17359,-55.35241 -20.50516,-75.61618 -20.57587,-56.86995 -56.57159,-116.26514 -94.55535,-156.0223 l -14.94317,-15.64083 h -95.01908 c -61.747305,0 -96.347862,0.71113 -98.813847,2.03089 -3.688882,1.97423 -3.794754,5.41159 -3.794754,123.20507 0,91.63078 0.573986,121.74819 2.354238,123.52844 1.792932,1.79293 40.850376,2.35424 163.815673,2.35424 158.97039,0 161.46145,-0.0592 161.46145,-3.83933 z m 29.03559,1.48509 c 3.68807,-3.68807 2.85626,-11.21539 -4.33751,-39.25098 -8.87651,-34.59363 -18.09827,-59.18431 -35.53011,-94.74436 -20.63744,-42.09925 -53.75593,-90.3988 -74.4356,-108.55579 -5.68586,-4.99225 -8.79806,-6.21327 -15.83666,-6.21327 -4.81807,0 -8.76012,0.44908 -8.76012,0.99797 0,0.54889 4.8472,6.27052 10.77156,12.71473 14.39223,15.65517 37.38866,46.74943 49.92941,67.51127 25.29938,41.88439 49.59742,102.99655 59.16437,148.80463 l 4.40462,21.09004 h 6.13789 c 3.37586,0 7.19732,-1.05941 8.49215,-2.35424 z M 448.4822,303.30424 v -9.80932 h -8.82839 -8.82839 v 9.80932 9.80932 h 8.82839 8.82839 z m -31.38983,-48.06568 c 0,-31.40596 -0.12085,-32.37076 -4.05258,-32.37076 -8.16273,0 -97.0037,6.26154 -97.63783,6.88155 -0.35993,0.3519 6.15215,12.5732 14.4713,27.15842 l 15.1257,26.51858 12.01387,1.13408 c 16.18916,1.52819 28.85349,2.27256 45.85603,2.69527 l 14.22351,0.35362 z m 31.38983,16.67585 v -9.80933 h -8.82839 -8.82839 v 9.80933 9.80932 h 8.82839 8.82839 z m 0,-32.37077 v -8.82839 h -8.82839 -8.82839 v 8.82839 8.82839 h 8.82839 8.82839 z m 0,-32.37076 v -9.80932 h -8.82839 -8.82839 v 9.80932 9.80932 h 8.82839 8.82839 z m -75.019,4.64322 4.4365,-1.18879 -0.51277,-77.74946 -0.51278,-77.74946 -17.16631,-0.566848 -17.16631,-0.566847 v 79.531885 79.53189 l 13.24258,-0.0267 c 7.28342,-0.0157 15.23902,-0.56176 17.67909,-1.21559 z M 438.28051,38.060169 c 1.29483,-1.29483 2.35424,-7.033283 2.35424,-12.752118 V 14.910169 H 311.15169 181.66864 v 8.957365 c 0,4.926552 0.91391,10.665005 2.03089,12.752119 1.97529,3.690853 5.45605,3.794754 127.12881,3.794754 94.68258,0 125.67032,-0.572392 127.45217,-2.354238 z"
   id="path762"
   inkscape:connector-curvature="0" /></svg>