<?xml version="1.0" encoding="UTF-8" standalone="no"?>
<!-- Generator: Adobe Illustrator 19.0.0, SVG Export Plug-In . SVG Version: 6.00 Build 0)  -->

<svg
   xmlns:dc="http://purl.org/dc/elements/1.1/"
   xmlns:cc="http://creativecommons.org/ns#"
   xmlns:rdf="http://www.w3.org/1999/02/22-rdf-syntax-ns#"
   xmlns:svg="http://www.w3.org/2000/svg"
   xmlns="http://www.w3.org/2000/svg"
   xmlns:sodipodi="http://sodipodi.sourceforge.net/DTD/sodipodi-0.dtd"
   xmlns:inkscape="http://www.inkscape.org/namespaces/inkscape"
   version="1.1"
   id="Capa_1"
   x="0px"
   y="0px"
   viewBox="0 0 512 512"
   style="enable-background:new 0 0 512 512;"
   xml:space="preserve"
   sodipodi:docname="location.svg"
   inkscape:version="0.92.4 (5da689c313, 2019-01-14)"><metadata
   id="metadata106"><rdf:RDF><cc:Work
       rdf:about=""><dc:format>image/svg+xml</dc:format><dc:type
         rdf:resource="http://purl.org/dc/dcmitype/StillImage" /></cc:Work></rdf:RDF></metadata><defs
   id="defs104" /><sodipodi:namedview
   pagecolor="#ffffff"
   bordercolor="#666666"
   borderopacity="1"
   objecttolerance="10"
   gridtolerance="10"
   guidetolerance="10"
   inkscape:pageopacity="0"
   inkscape:pageshadow="2"
   inkscape:window-width="1920"
   inkscape:window-height="1017"
   id="namedview102"
   showgrid="false"
   inkscape:zoom="1.65625"
   inkscape:cx="256"
   inkscape:cy="256"
   inkscape:window-x="-4"
   inkscape:window-y="-4"
   inkscape:window-maximized="1"
   inkscape:current-layer="Capa_1" />
<g
   id="g63">
	<g
   id="g61">
		<path
   d="M425.951,89.021C386.864,32.451,324.917,0,256.006,0S125.148,32.451,86.061,89.021    c-38.895,56.284-47.876,127.541-24.072,190.496c6.367,17.192,16.488,33.895,30.01,49.547l150.378,176.634    c3.401,3.998,8.384,6.302,13.629,6.302c5.245,0,10.228-2.303,13.629-6.302l150.336-176.586    c13.582-15.742,23.69-32.427,30.004-49.481C473.827,216.562,464.846,145.305,425.951,89.021z M416.451,267.093    c-4.869,13.158-12.818,26.167-23.613,38.68c-0.03,0.03-0.06,0.06-0.084,0.096L256.006,466.487L119.174,305.768    c-10.789-12.502-18.738-25.51-23.655-38.794c-19.686-52.065-12.215-110.981,19.991-157.592    c32.307-46.76,83.519-73.578,140.496-73.578c56.976,0,108.182,26.817,140.49,73.578    C428.708,155.993,436.185,214.909,416.451,267.093z"
   id="path59" />
	</g>
</g>
<g
   id="g69">
	<g
   id="g67">
		<path
   d="M256.006,106.219c-55.276,0-100.252,44.97-100.252,100.252s44.97,100.252,100.252,100.252s100.252-44.97,100.252-100.252    C356.258,151.195,311.282,106.219,256.006,106.219z M256.006,270.918c-35.536,0-64.448-28.912-64.448-64.448    c0-35.536,28.912-64.448,64.448-64.448c35.536,0,64.448,28.912,64.448,64.448S291.542,270.918,256.006,270.918z"
   id="path65" />
	</g>
</g>
<g
   id="g71">
</g>
<g
   id="g73">
</g>
<g
   id="g75">
</g>
<g
   id="g77">
</g>
<g
   id="g79">
</g>
<g
   id="g81">
</g>
<g
   id="g83">
</g>
<g
   id="g85">
</g>
<g
   id="g87">
</g>
<g
   id="g89">
</g>
<g
   id="g91">
</g>
<g
   id="g93">
</g>
<g
   id="g95">
</g>
<g
   id="g97">
</g>
<g
   id="g99">
</g>
<path
   style="fill:#ffffff;stroke-width:0.60377359"
   d="m 251.73252,511.2147 c -5.45678,-1.40072 -4.97999,-0.86875 -84.52194,-94.30367 C 124.78911,367.08014 88.618369,324.49582 86.831151,322.27923 76.907508,309.97144 66.536294,291.38483 61.058308,276.09084 53.774964,255.75647 50.105751,235.83792 49.471746,213.19245 48.08542,163.67556 63.884935,116.81727 95.345851,77.138802 102.98821,67.500263 119.30572,51.216629 128.36696,44.18625 158.70859,20.644951 191.77513,6.8480731 229.79623,1.8652956 240.24618,0.4957981 261.40985,0.01982042 272.13423,0.91310044 296.0939,2.9088053 317.10926,8.048192 338.17358,17.063275 c 58.22647,24.919693 102.52341,77.428221 118.3423,140.280125 4.45339,17.69429 5.99395,30.54302 6.00858,50.1132 0.0183,24.43494 -2.84847,42.23921 -10.50662,65.2527 -5.36054,16.10893 -12.32441,29.68126 -22.24599,43.3566 -5.51668,7.60387 3.80684,-3.45928 -86.90289,103.11765 -70.62587,82.97995 -75.84742,88.96556 -78.92085,90.46926 -3.53464,1.72934 -8.89382,2.41456 -12.21559,1.56189 z m 73.45993,-125.39449 c 37.69057,-44.31747 70.10155,-82.54141 72.0244,-84.94211 12.32591,-15.389 21.4345,-34.80088 26.04809,-55.51266 10.29935,-46.2369 1.48748,-93.86143 -24.64585,-133.2007 -7.28745,-10.97001 -14.08147,-19.124698 -23.99455,-28.800055 -26.78785,-26.145444 -58.38062,-41.285761 -97.1302,-46.548063 -10.4193,-1.414969 -32.55306,-1.42083 -42.86792,-0.01135 -21.45549,2.931794 -37.66002,7.831272 -55.68309,16.835914 -48.45061,24.206778 -82.946704,71.371664 -92.206172,126.069174 -4.522665,26.71627 -2.344905,54.45091 6.34622,80.82162 5.834478,17.70305 13.011732,30.08872 27.234292,46.99777 31.41047,37.34357 135.2579,158.89312 135.74271,158.88178 0.33207,-0.008 31.44151,-36.27386 69.13207,-80.59132 z"
   id="path108"
   inkscape:connector-curvature="0" /><path
   style="fill:#ffffff;stroke-width:0.60377359"
   d="m 244.89057,305.79849 c -12.12229,-1.3929 -21.6552,-4.28659 -33.50944,-10.17171 -23.58337,-11.70813 -41.77839,-32.57191 -50.04963,-57.39069 -3.95006,-11.85259 -4.82224,-17.49175 -4.85384,-31.38326 -0.024,-10.54075 0.17487,-13.38326 1.34011,-19.15638 7.34357,-36.38318 33.02535,-65.21614 68.05393,-76.40421 10.83443,-3.46049 17.08424,-4.36394 30.18868,-4.36394 13.296,0 19.45503,0.91709 30.61216,4.55821 49.18928,16.05287 78.00318,66.41518 66.8252,116.80028 -5.44647,24.55014 -21.15132,47.30944 -42.43535,61.49686 -19.06264,12.70668 -43.49701,18.62027 -66.17182,16.01484 z m 24.52648,-36.14982 c 19.16695,-3.76883 36.91928,-17.86051 45.27034,-35.93529 12.70198,-27.49176 4.4812,-60.51248 -19.62728,-78.83765 -4.99702,-3.79829 -15.84888,-9.17392 -21.79056,-10.79426 -28.58605,-7.79565 -58.63719,4.66557 -73.47935,30.46947 -10.34593,17.98698 -11.22741,40.40352 -2.32962,59.24384 6.44457,13.64584 16.90501,24.30671 30.12594,30.70322 13.35032,6.45911 26.77172,8.11171 41.83053,5.15067 z"
   id="path110"
   inkscape:connector-curvature="0" /></svg>