<?xml version="1.0" encoding="UTF-8" standalone="no"?>
<svg
   xmlns:dc="http://purl.org/dc/elements/1.1/"
   xmlns:cc="http://creativecommons.org/ns#"
   xmlns:rdf="http://www.w3.org/1999/02/22-rdf-syntax-ns#"
   xmlns:svg="http://www.w3.org/2000/svg"
   xmlns="http://www.w3.org/2000/svg"
   xmlns:sodipodi="http://sodipodi.sourceforge.net/DTD/sodipodi-0.dtd"
   xmlns:inkscape="http://www.inkscape.org/namespaces/inkscape"
   version="1.1"
   viewBox="0 0 463.009 463.009"
   enable-background="new 0 0 463.009 463.009"
   id="svg26"
   sodipodi:docname="phone.svg"
   inkscape:version="0.92.4 (5da689c313, 2019-01-14)">
  <metadata
     id="metadata32">
    <rdf:RDF>
      <cc:Work
         rdf:about="">
        <dc:format>image/svg+xml</dc:format>
        <dc:type
           rdf:resource="http://purl.org/dc/dcmitype/StillImage" />
      </cc:Work>
    </rdf:RDF>
  </metadata>
  <defs
     id="defs30" />
  <sodipodi:namedview
     pagecolor="#ffffff"
     bordercolor="#666666"
     borderopacity="1"
     objecttolerance="10"
     gridtolerance="10"
     guidetolerance="10"
     inkscape:pageopacity="0"
     inkscape:pageshadow="2"
     inkscape:window-width="1920"
     inkscape:window-height="1017"
     id="namedview28"
     showgrid="false"
     inkscape:zoom="1.8314979"
     inkscape:cx="231.5045"
     inkscape:cy="231.5045"
     inkscape:window-x="-4"
     inkscape:window-y="-4"
     inkscape:window-maximized="1"
     inkscape:current-layer="svg26" />
  <g
     id="g24">
    <path
       d="m462.692,381.085c-1.472-11.126-7.895-20.719-17.62-26.318l-114.226-65.767c-13.99-8.055-31.738-5.71-43.157,5.708l-22.499,22.499c-5.987,5.988-15.459,6.518-22.028,1.231-17.737-14.272-35.201-29.979-51.906-46.685-16.705-16.705-32.412-34.168-46.685-51.906-5.287-6.57-4.758-16.041 1.231-22.029l22.498-22.499c11.418-11.417 13.766-29.163 5.709-43.156l-65.767-114.226c-5.6-9.726-15.192-16.148-26.318-17.62-11.127-1.475-22.06,2.236-29.996,10.172l-33.901,33.902c-23.661,23.662-24.041,66.944-1.07,121.875 22.088,52.818 63.308,110.962 116.065,163.721 52.759,52.758 110.903,93.978 163.722,116.066 27.039,11.307 51.253,16.957 71.697,16.956 21.088,0 38.163-6.013 50.178-18.027l33.901-33.902c7.935-7.936 11.643-18.869 10.172-29.995zm-139.33-79.086l114.226,65.767c5.649,3.252 9.379,8.824 10.233,15.286 0.718,5.423-0.691,10.763-3.885,15.066l-151.805-86.638 6.165-6.165c6.631-6.631 16.941-7.994 25.066-3.316zm-243.406-286.811c6.463,0.855 12.034,4.585 15.286,10.234l65.767,114.226c4.68,8.127 3.316,18.435-3.315,25.065l-5.663,5.663-87.114-151.303c3.561-2.637 7.82-4.069 12.26-4.069 0.921-1.77636e-15 1.85,0.061 2.779,0.184zm328.055,419.187c-18.798,18.798-57.244,18.01-105.48-2.162-51.06-21.352-107.491-61.424-158.901-112.833-51.41-51.41-91.482-107.842-112.834-158.901-20.173-48.237-20.96-86.683-2.162-105.482l25.167-25.168 87.245,151.532-5.851,5.851c-11.415,11.416-12.409,29.488-2.311,42.04 14.609,18.156 30.68,36.024 47.764,53.108 17.086,17.085 34.954,33.156 53.109,47.765 12.55,10.098 30.622,9.105 42.04-2.312l5.338-5.338 152.016,86.759-25.14,25.141z"
       id="path22" />
  </g>
  <path
     style="fill:#ffffff;stroke-width:0.5460012"
     d="M 356.59337,462.17263 C 288.63784,455.66759 192.05538,394.64378 112.15092,307.72627 70.144144,262.03264 35.877902,210.82398 16.9756,165.49296 -1.229145,121.8348 -4.6038427,83.839765 7.5683692,59.578846 11.533226,51.676335 13.903568,48.925609 34.690367,28.104421 56.633792,6.1246929 58.506839,4.5792974 66.393744,1.9469191 c 5.040464,-1.68233442 12.809073,-2.03750325 18.222598,-0.833109 6.82715,1.5188971 12.445546,4.6618363 17.541448,9.8127139 4.32855,4.375257 4.68665,4.968604 38.70977,64.140006 21.82188,37.95159 34.83902,61.14026 35.70744,63.60914 0.98364,2.79639 1.43949,5.43607 1.62659,9.41896 0.32999,7.02463 -0.78658,12.32787 -3.87552,18.40713 -2.06973,4.07338 -3.49472,5.70255 -16.78785,19.19324 -16.41814,16.66216 -16.64483,16.9944 -16.57764,24.29705 0.0488,5.29683 0.95206,7.04346 8.18899,15.83404 24.83901,30.17154 54.05779,59.54327 85.68554,86.13409 10.3125,8.67017 13.07782,10.18775 18.56404,10.18775 6.88909,0 8.32485,-0.99351 24.29424,-16.8111 7.65921,-7.5864 15.2124,-14.59837 16.78485,-15.58214 8.37942,-5.24241 20.20987,-6.54749 29.95503,-3.30451 2.82409,0.9398 107.42389,60.55757 121.22309,69.09239 11.1845,6.91763 17.76634,19.53926 16.91963,32.44587 -0.36662,5.58857 -1.42288,9.37631 -4.03486,14.46903 -1.73254,3.37803 -4.37445,6.2509 -22.74294,24.73118 -13.5853,13.66798 -22.1567,21.85955 -24.75018,23.65343 -13.78088,9.53209 -32.51685,13.43054 -54.45464,11.33055 z m 22.38605,-14.67716 c 8.53717,-1.18713 15.86253,-3.5773 22.01192,-7.18221 2.037,-1.19413 8.17011,-6.82717 17.84027,-16.38564 8.10488,-8.01126 14.61594,-14.68303 14.46903,-14.82616 -0.40777,-0.39728 -150.68035,-86.11757 -151.5624,-86.45604 -0.46969,-0.18024 -2.65164,1.49317 -5.57781,4.27781 -7.21165,6.86282 -13.90739,9.7411 -22.66068,9.7411 -8.03277,0 -14.16151,-2.40825 -21.78647,-8.56085 -31.75801,-25.62561 -65.49643,-59.10602 -93.43694,-92.72237 -9.39154,-11.29935 -11.82247,-16.57275 -11.82247,-25.64644 0,-9.43429 2.53356,-15.28478 9.96071,-23.00122 2.62973,-2.73216 4.78133,-5.13186 4.78133,-5.33267 0,-0.35917 -86.671309,-151.070199 -87.168187,-151.57503 C 53.887565,29.683347 47.18854,36.194411 39.141005,44.294782 27.83007,55.679978 24.001888,59.890198 22.274282,62.844736 c -7.958133,13.609942 -9.431853,34.645948 -4.150258,59.241124 9.760196,45.45099 43.768317,105.56955 90.342786,159.70535 24.31499,28.2625 55.21103,58.54758 82.4152,80.78546 59.11268,48.32129 116.97895,78.34014 163.15412,84.63822 6.35421,0.86669 19.6526,1.01627 24.94329,0.28058 z m 67.15815,-52.68686 c 1.51526,-2.95462 1.638,-3.62643 1.638,-8.96557 0,-5.12345 -0.16483,-6.12332 -1.46774,-8.90337 -2.91738,-6.22484 -2.1303,-5.71817 -65.69041,-42.28722 -36.6429,-21.08235 -60.0909,-34.25554 -61.93373,-34.79464 -4.99636,-1.46164 -10.03495,-0.98254 -15.21154,1.44641 -3.1343,1.47067 -11.85052,9.64585 -11.09246,10.40391 1.00658,1.00658 151.03364,86.54509 151.57387,86.42043 0.3003,-0.0693 1.2831,-1.56327 2.18401,-3.31995 z M 156.20323,166.7446 c 2.00396,-2.16446 4.22549,-4.92859 4.93674,-6.14252 1.50546,-2.56941 2.98799,-7.86356 2.98799,-10.67016 0,-5.27091 -1.11389,-7.38381 -34.2199,-64.911106 C 112.00144,53.905031 96.319643,26.838571 95.05963,24.873126 90.257845,17.383005 82.405086,13.764376 73.91853,15.131097 c -3.51533,0.566127 -8.889789,3.033735 -8.889789,4.081623 0,0.789969 86.711679,151.44806 87.172569,151.45885 0.1971,0.004 1.99797,-1.76252 4.00192,-3.92697 z"
     id="path34"
     inkscape:connector-curvature="0" />
</svg>
