<?xml version="1.0" encoding="UTF-8" standalone="no"?>
<!-- Generator: Adobe Illustrator 16.0.0, SVG Export Plug-In . SVG Version: 6.00 Build 0)  -->

<svg
   xmlns:osb="http://www.openswatchbook.org/uri/2009/osb"
   xmlns:dc="http://purl.org/dc/elements/1.1/"
   xmlns:cc="http://creativecommons.org/ns#"
   xmlns:rdf="http://www.w3.org/1999/02/22-rdf-syntax-ns#"
   xmlns:svg="http://www.w3.org/2000/svg"
   xmlns="http://www.w3.org/2000/svg"
   xmlns:xlink="http://www.w3.org/1999/xlink"
   xmlns:sodipodi="http://sodipodi.sourceforge.net/DTD/sodipodi-0.dtd"
   xmlns:inkscape="http://www.inkscape.org/namespaces/inkscape"
   version="1.1"
   id="Capa_1"
   x="0px"
   y="0px"
   width="57.521px"
   height="57.521px"
   viewBox="0 0 57.521 57.521"
   style="enable-background:new 0 0 57.521 57.521;"
   xml:space="preserve"
   sodipodi:docname="recipe.svg"
   inkscape:version="0.92.4 (5da689c313, 2019-01-14)"><metadata
   id="metadata260"><rdf:RDF><cc:Work
       rdf:about=""><dc:format>image/svg+xml</dc:format><dc:type
         rdf:resource="http://purl.org/dc/dcmitype/StillImage" /></cc:Work></rdf:RDF></metadata><defs
   id="defs258"><linearGradient
     id="linearGradient6407"
     osb:paint="solid"><stop
       style="stop-color:#000000;stop-opacity:1;"
       offset="0"
       id="stop6405" /></linearGradient><linearGradient
     inkscape:collect="always"
     xlink:href="#linearGradient6407"
     id="linearGradient6409"
     x1="30.320048"
     y1="30.728173"
     x2="47.953128"
     y2="30.728173"
     gradientUnits="userSpaceOnUse" /></defs><sodipodi:namedview
   pagecolor="#ffffff"
   bordercolor="#666666"
   borderopacity="1"
   objecttolerance="10"
   gridtolerance="10"
   guidetolerance="10"
   inkscape:pageopacity="0"
   inkscape:pageshadow="2"
   inkscape:window-width="1920"
   inkscape:window-height="1017"
   id="namedview256"
   showgrid="false"
   inkscape:zoom="16.411398"
   inkscape:cx="29.823675"
   inkscape:cy="31.347675"
   inkscape:window-x="-4"
   inkscape:window-y="-4"
   inkscape:window-maximized="1"
   inkscape:current-layer="Capa_1" />
<g
   id="g223"
   style="stroke-width:0;stroke-miterlimit:4;stroke-dasharray:none">
	<g
   id="g221"
   style="stroke-width:0;stroke-miterlimit:4;stroke-dasharray:none">
		<path
   d="M57.521,44.468c0-13.11-8.828-24.19-20.85-27.629v-5.344c0.903-0.62,1.458-1.411,1.458-2.393    c0-2.846-4.586-4.12-9.13-4.12s-9.13,1.274-9.13,4.12c0,1.139,0.743,2.023,1.916,2.677v4.815    C9.31,19.726,0.042,31.034,0.042,44.468v2h57.479V44.468z M4.122,42.468c0.881-10.957,8.935-19.917,19.448-22.18    c1.681-0.362,3.423-0.559,5.211-0.559s3.53,0.197,5.211,0.559c10.513,2.264,18.566,11.223,19.447,22.18H4.122z M33.287,9.722    C32.24,10,30.8,10.222,29,10.222s-3.24-0.222-4.287-0.5c-0.742-0.197-1.293-0.421-1.61-0.62c0.766-0.478,2.822-1.12,5.897-1.12    s5.132,0.642,5.896,1.12C34.58,9.299,34.029,9.524,33.287,9.722z M25.786,13.722h6.886V16c-1.273-0.173-2.57-0.271-3.891-0.271    c-1.011,0-2.01,0.054-2.995,0.156V13.722z"
   id="path215"
   style="stroke-width:0;stroke-miterlimit:4;stroke-dasharray:none" />
		<path
   d="M36.109,22.525c-0.573-0.271-1.172-0.409-1.774-0.409c-1.899,0-3.655,1.441-4.084,3.352    c-0.384,1.711,0.423,3.315,2.056,4.087c4.381,2.07,6.965,4.393,8.375,7.529c0.616,1.369,1.822,2.188,3.229,2.188    c1.361,0,2.75-0.786,3.535-2.002c0.773-1.195,0.88-2.631,0.291-3.939C45.723,28.854,41.811,25.218,36.109,22.525z M44.927,35.641    c-0.269,0.415-0.715,0.632-1.018,0.632c-0.106,0-0.304,0-0.491-0.418c-2.21-4.914-6.415-7.397-9.831-9.011    c-0.375-0.177-0.485-0.372-0.407-0.717c0.107-0.487,0.6-1.009,1.155-1.009c0.157,0,0.323,0.041,0.494,0.122    c5.036,2.379,8.458,5.515,10.17,9.322C45.172,34.944,45.148,35.298,44.927,35.641z"
   id="path217"
   style="stroke-width:0;stroke-miterlimit:4;stroke-dasharray:none" />
		<rect
   y="48.54"
   width="57.5"
   height="4"
   id="rect219"
   style="stroke-width:0;stroke-miterlimit:4;stroke-dasharray:none" />
	</g>
</g>
<g
   id="g225"
   style="stroke-width:0;stroke-miterlimit:4;stroke-dasharray:none">
</g>
<g
   id="g227"
   style="stroke-width:0;stroke-miterlimit:4;stroke-dasharray:none">
</g>
<g
   id="g229"
   style="stroke-width:0;stroke-miterlimit:4;stroke-dasharray:none">
</g>
<g
   id="g231"
   style="stroke-width:0;stroke-miterlimit:4;stroke-dasharray:none">
</g>
<g
   id="g233"
   style="stroke-width:0;stroke-miterlimit:4;stroke-dasharray:none">
</g>
<g
   id="g235"
   style="stroke-width:0;stroke-miterlimit:4;stroke-dasharray:none">
</g>
<g
   id="g237"
   style="stroke-width:0;stroke-miterlimit:4;stroke-dasharray:none">
</g>
<g
   id="g239"
   style="stroke-width:0;stroke-miterlimit:4;stroke-dasharray:none">
</g>
<g
   id="g241"
   style="stroke-width:0;stroke-miterlimit:4;stroke-dasharray:none">
</g>
<g
   id="g243"
   style="stroke-width:0;stroke-miterlimit:4;stroke-dasharray:none">
</g>
<g
   id="g245"
   style="stroke-width:0;stroke-miterlimit:4;stroke-dasharray:none">
</g>
<g
   id="g247"
   style="stroke-width:0;stroke-miterlimit:4;stroke-dasharray:none">
</g>
<g
   id="g249"
   style="stroke-width:0;stroke-miterlimit:4;stroke-dasharray:none">
</g>
<g
   id="g251"
   style="stroke-width:0;stroke-miterlimit:4;stroke-dasharray:none">
</g>
<g
   id="g253"
   style="stroke-width:0;stroke-miterlimit:4;stroke-dasharray:none">
</g>
<path
   style="fill:#ffffff;stroke-width:0;stroke-miterlimit:4;stroke-dasharray:none"
   d="M 0.22110958,43.347923 C 0.64933682,34.384959 4.827349,26.592897 12.058741,21.270541 c 1.936499,-1.425277 5.867313,-3.40957 8.094081,-4.08593 l 1.685659,-0.512004 v -2.507425 c 0,-2.427249 -0.02013,-2.520618 -0.62969,-2.920014 -0.772792,-0.506353 -1.31802,-1.7384566 -1.152488,-2.6043839 0.06785,-0.3549262 0.475204,-0.9863406 0.905235,-1.4031431 2.952127,-2.8613142 13.26002,-2.7890948 16.171192,0.1132991 1.089202,1.0859165 1.112727,2.4302639 0.06093,3.4820569 -0.723154,0.723152 -0.7312,0.760484 -0.7312,3.392431 v 2.661233 l 1.03587,0.303439 c 1.706446,0.499874 5.34489,2.304807 7.272051,3.607466 7.804549,5.275458 12.644539,14.36846 12.651688,23.769022 l 0.0014,1.888931 H 28.748072 0.07263664 Z M 53.523778,42.089766 c 0,-0.894635 -0.691173,-4.055362 -1.230552,-5.627302 C 49.982108,29.727055 44.394715,23.860738 37.908106,21.359237 30.641997,18.557129 22.33732,19.287774 15.812452,23.303212 9.5798776,27.138771 5.0472879,34.091953 4.1623195,41.174999 L 3.9898011,42.555791 H 28.75679 c 24.224675,0 24.766988,-0.0102 24.766988,-0.466025 z M 32.806469,14.756463 v -1.204905 h -3.53413 -3.534129 v 1.179383 1.179384 l 3.534129,0.02552 3.53413,0.02552 z m -1.14948,-4.622173 c 0.909398,-0.131496 2.061036,-0.4102587 2.559197,-0.6194738 0.843853,-0.3543969 0.872445,-0.3991757 0.418429,-0.6552829 -0.953596,-0.5379166 -3.20331,-0.9062765 -5.557893,-0.9100285 -2.357945,-0.00376 -5.636213,0.5480157 -5.912562,0.9951572 -0.198913,0.3218495 1.374347,0.9346275 3.019341,1.17602 1.950352,0.286202 3.560591,0.290205 5.473488,0.01361 z"
   id="path262"
   inkscape:connector-curvature="0" /><path
   style="fill:#ffffff;stroke-width:0;stroke-miterlimit:4;stroke-dasharray:none"
   d="M 0.14623983,50.598981 V 48.649117 H 28.784873 57.423507 v 1.949864 1.949865 H 28.784873 0.14623983 Z"
   id="path264"
   inkscape:connector-curvature="0" /><path
   style="fill:#ffffff;stroke-width:0.1;stroke-miterlimit:4;stroke-dasharray:none;stroke:url(#linearGradient6409);stroke-opacity:1"
   d="m 42.457002,38.771242 c -0.85271,-0.444687 -1.137373,-0.793655 -2.125678,-2.605867 -1.307347,-2.397223 -3.981784,-4.704974 -7.594037,-6.552836 -1.698793,-0.869024 -2.365954,-1.83056 -2.367238,-3.411752 -0.0017,-2.096403 1.798263,-3.87484 3.921746,-3.87484 2.736484,0 9.114802,4.433187 11.605939,8.066593 2.64045,3.851183 2.672722,6.421785 0.101097,8.052662 -1.242044,0.787681 -2.444372,0.89836 -3.541829,0.32604 z m 2.292386,-2.796244 c 0.682816,-0.682815 0.617129,-1.130741 -0.426533,-2.908618 -1.647546,-2.806591 -4.683908,-5.481683 -8.279973,-7.294813 -1.7472,-0.880934 -1.942095,-0.908572 -2.546956,-0.361181 -0.813857,0.73653 -0.549077,1.243629 1.077607,2.063804 2.165681,1.091938 4.000322,2.38866 5.519431,3.901127 1.191419,1.186209 2.950293,3.583037 2.950293,4.020382 0,0.254785 0.770833,1.066765 1.012708,1.066765 0.113276,0 0.425317,-0.219359 0.693423,-0.487466 z"
   id="path266"
   inkscape:connector-curvature="0" /></svg>