<?xml version="1.0" encoding="UTF-8" standalone="no"?>
<!-- Generator: Adobe Illustrator 16.0.0, SVG Export Plug-In . SVG Version: 6.00 Build 0)  -->

<svg
   xmlns:dc="http://purl.org/dc/elements/1.1/"
   xmlns:cc="http://creativecommons.org/ns#"
   xmlns:rdf="http://www.w3.org/1999/02/22-rdf-syntax-ns#"
   xmlns:svg="http://www.w3.org/2000/svg"
   xmlns="http://www.w3.org/2000/svg"
   xmlns:sodipodi="http://sodipodi.sourceforge.net/DTD/sodipodi-0.dtd"
   xmlns:inkscape="http://www.inkscape.org/namespaces/inkscape"
   version="1.1"
   id="Capa_1"
   x="0px"
   y="0px"
   width="57.521px"
   height="57.521px"
   viewBox="0 0 57.521 57.521"
   style="enable-background:new 0 0 57.521 57.521;"
   xml:space="preserve"
   sodipodi:docname="recipe2.svg"
   inkscape:version="0.92.4 (5da689c313, 2019-01-14)"><metadata
   id="metadata260"><rdf:RDF><cc:Work
       rdf:about=""><dc:format>image/svg+xml</dc:format><dc:type
         rdf:resource="http://purl.org/dc/dcmitype/StillImage" /><dc:title></dc:title></cc:Work></rdf:RDF></metadata><defs
   id="defs258" /><sodipodi:namedview
   pagecolor="#ffffff"
   bordercolor="#666666"
   borderopacity="1"
   objecttolerance="10"
   gridtolerance="10"
   guidetolerance="10"
   inkscape:pageopacity="0"
   inkscape:pageshadow="2"
   inkscape:window-width="1920"
   inkscape:window-height="1017"
   id="namedview256"
   showgrid="false"
   inkscape:zoom="11.604611"
   inkscape:cx="45.505312"
   inkscape:cy="24.002197"
   inkscape:window-x="-4"
   inkscape:window-y="-4"
   inkscape:window-maximized="1"
   inkscape:current-layer="Capa_1"
   inkscape:snap-grids="true" />
<g
   id="g223">
	<g
   id="g221">
		<path
   d="M57.521,44.468c0-13.11-8.828-24.19-20.85-27.629v-5.344c0.903-0.62,1.458-1.411,1.458-2.393    c0-2.846-4.586-4.12-9.13-4.12s-9.13,1.274-9.13,4.12c0,1.139,0.743,2.023,1.916,2.677v4.815    C9.31,19.726,0.042,31.034,0.042,44.468v2h57.479V44.468z M4.122,42.468c0.881-10.957,8.935-19.917,19.448-22.18    c1.681-0.362,3.423-0.559,5.211-0.559s3.53,0.197,5.211,0.559c10.513,2.264,18.566,11.223,19.447,22.18H4.122z M33.287,9.722    C32.24,10,30.8,10.222,29,10.222s-3.24-0.222-4.287-0.5c-0.742-0.197-1.293-0.421-1.61-0.62c0.766-0.478,2.822-1.12,5.897-1.12    s5.132,0.642,5.896,1.12C34.58,9.299,34.029,9.524,33.287,9.722z M25.786,13.722h6.886V16c-1.273-0.173-2.57-0.271-3.891-0.271    c-1.011,0-2.01,0.054-2.995,0.156V13.722z"
   id="path215" />
		<path
   d="M36.109,22.525c-0.573-0.271-1.172-0.409-1.774-0.409c-1.899,0-3.655,1.441-4.084,3.352    c-0.384,1.711,0.423,3.315,2.056,4.087c4.381,2.07,6.965,4.393,8.375,7.529c0.616,1.369,1.822,2.188,3.229,2.188    c1.361,0,2.75-0.786,3.535-2.002c0.773-1.195,0.88-2.631,0.291-3.939C45.723,28.854,41.811,25.218,36.109,22.525z M44.927,35.641    c-0.269,0.415-0.715,0.632-1.018,0.632c-0.106,0-0.304,0-0.491-0.418c-2.21-4.914-6.415-7.397-9.831-9.011    c-0.375-0.177-0.485-0.372-0.407-0.717c0.107-0.487,0.6-1.009,1.155-1.009c0.157,0,0.323,0.041,0.494,0.122    c5.036,2.379,8.458,5.515,10.17,9.322C45.172,34.944,45.148,35.298,44.927,35.641z"
   id="path217" />
		<rect
   y="48.54"
   width="57.5"
   height="4"
   id="rect219" />
	</g>
</g>
<g
   id="g225">
</g>
<g
   id="g227">
</g>
<g
   id="g229">
</g>
<g
   id="g231">
</g>
<g
   id="g233">
</g>
<g
   id="g235">
</g>
<g
   id="g237">
</g>
<g
   id="g239">
</g>
<g
   id="g241">
</g>
<g
   id="g243">
</g>
<g
   id="g245">
</g>
<g
   id="g247">
</g>
<g
   id="g249">
</g>
<g
   id="g251">
</g>
<g
   id="g253">
</g>
<path
   style="fill:#ffffff;stroke-width:0.24373305"
   d="M 0.14623983,50.598981 V 48.649117 H 28.784873 57.423507 v 1.949864 1.949865 H 28.784873 0.14623983 Z"
   id="path264"
   inkscape:connector-curvature="0" /><path
   style="fill:#ffffff"
   id="path98"
   d="m 7.8429579,11.69632 c 0.187336,0.329671 0.3948772,0.647503 0.6074288,0.961357 0.1957329,0.270504 0.3812776,0.549275 0.6116839,0.791956 0.2292919,0.193045 0.4681792,0.374704 0.7095102,0.55242 0.2663632,0.214687 0.5738652,0.366061 0.8640902,0.543458 0.243156,0.135534 0.451623,0.323467 0.658642,0.507645 0.231706,0.209929 0.47394,0.405725 0.679401,0.642596 0.145241,0.162185 0.282325,0.332639 0.415538,0.50494 0.136624,0.199612 0.328351,0.345759 0.514286,0.495752 0.307243,0.178997 0.676707,0.181922 1.022314,0.200685 0.32137,0.01314 0.643061,0.01341 0.964636,0.01439 0,0 -1.019483,0.740086 -1.019483,0.740086 v 0 c -0.323435,-0.0016 -0.646975,-0.0033 -0.970109,-0.01906 C 12.529899,17.608611 12.139269,17.592761 11.82266,17.37459 11.629664,17.218184 11.435369,17.06072 11.292639,16.854296 11.159234,16.684882 11.020914,16.518843 10.882117,16.353884 10.681146,16.12087 10.441865,15.929861 10.213971,15.724352 10.010809,15.545868 9.8014148,15.372017 9.5665916,15.236159 9.2735717,15.058035 8.970191,14.89474 8.700162,14.681212 8.4522019,14.499522 8.2006031,14.320124 7.9749246,14.110765 7.7441247,13.85995 7.556008,13.575505 7.3585386,13.298447 7.1453705,12.982874 6.9424263,12.660673 6.737124,12.339944 c 0,0 1.1058339,-0.643624 1.1058339,-0.643624 z"
   inkscape:connector-curvature="0" /></svg>