<?xml version="1.0" encoding="UTF-8" standalone="no"?>
<!-- Generator: Adobe Illustrator 16.0.0, SVG Export Plug-In . SVG Version: 6.00 Build 0)  -->

<svg
   xmlns:dc="http://purl.org/dc/elements/1.1/"
   xmlns:cc="http://creativecommons.org/ns#"
   xmlns:rdf="http://www.w3.org/1999/02/22-rdf-syntax-ns#"
   xmlns:svg="http://www.w3.org/2000/svg"
   xmlns="http://www.w3.org/2000/svg"
   xmlns:sodipodi="http://sodipodi.sourceforge.net/DTD/sodipodi-0.dtd"
   xmlns:inkscape="http://www.inkscape.org/namespaces/inkscape"
   version="1.1"
   id="Layer_1"
   x="0px"
   y="0px"
   width="96px"
   height="96px"
   viewBox="0 0 96 96"
   enable-background="new 0 0 96 96"
   xml:space="preserve"
   sodipodi:docname="right.svg"
   inkscape:version="0.92.4 (5da689c313, 2019-01-14)"><metadata
   id="metadata102"><rdf:RDF><cc:Work
       rdf:about=""><dc:format>image/svg+xml</dc:format><dc:type
         rdf:resource="http://purl.org/dc/dcmitype/StillImage" /><dc:title /></cc:Work></rdf:RDF></metadata><defs
   id="defs100" /><sodipodi:namedview
   pagecolor="#ffffff"
   bordercolor="#666666"
   borderopacity="1"
   objecttolerance="10"
   gridtolerance="10"
   guidetolerance="10"
   inkscape:pageopacity="0"
   inkscape:pageshadow="2"
   inkscape:window-width="1920"
   inkscape:window-height="1017"
   id="namedview98"
   showgrid="false"
   inkscape:zoom="6.9532167"
   inkscape:cx="59.921616"
   inkscape:cy="36.68873"
   inkscape:window-x="-4"
   inkscape:window-y="-4"
   inkscape:window-maximized="1"
   inkscape:current-layer="Layer_1" />


<path
   style="fill:#ffffff;stroke-width:0.03817582"
   d="m 49.827169,56.759193 c 0.09875,-0.04008 0.24143,-0.131286 0.317066,-0.202672 0.07564,-0.07139 1.69268,-1.960068 3.593431,-4.197071 3.867056,-4.551156 3.633062,-4.239285 3.599085,-4.796917 -0.0121,-0.198504 -0.04276,-0.328719 -0.107524,-0.456609 -0.04983,-0.0984 -1.688885,-2.052203 -3.642341,-4.341782 -3.954369,-4.634781 -3.658159,-4.327287 -4.130272,-4.287621 -0.645587,0.05424 -1.034493,0.761954 -0.82624,1.503553 0.05218,0.185834 0.294419,0.482881 2.738171,3.357763 l 2.680921,3.153892 -7.749571,0.0108 -7.74957,0.0108 -0.176148,0.0953 c -0.358158,0.193766 -0.548579,0.517676 -0.572783,0.974316 -0.01447,0.273069 -0.0066,0.316 0.103159,0.564444 0.128403,0.290569 0.33756,0.496564 0.586681,0.577814 0.08635,0.02816 2.70223,0.04233 7.844272,0.04248 l 7.714724,2.31e-4 -2.64857,3.112981 c -2.920726,3.432858 -2.827848,3.307517 -2.827848,3.816246 0,0.476376 0.293797,0.941023 0.680212,1.075773 0.227568,0.07936 0.35113,0.0764 0.573145,-0.01372 z"
   id="path104"
   inkscape:connector-curvature="0" /></svg>