<?xml version="1.0" encoding="UTF-8" standalone="no"?>
<svg
   xmlns:dc="http://purl.org/dc/elements/1.1/"
   xmlns:cc="http://creativecommons.org/ns#"
   xmlns:rdf="http://www.w3.org/1999/02/22-rdf-syntax-ns#"
   xmlns:svg="http://www.w3.org/2000/svg"
   xmlns="http://www.w3.org/2000/svg"
   xmlns:sodipodi="http://sodipodi.sourceforge.net/DTD/sodipodi-0.dtd"
   xmlns:inkscape="http://www.inkscape.org/namespaces/inkscape"
   height="419pt"
   viewBox="0 0 419.09088 419"
   width="419pt"
   version="1.1"
   id="svg128"
   sodipodi:docname="search.svg"
   inkscape:version="0.92.4 (5da689c313, 2019-01-14)">
  <metadata
     id="metadata134">
    <rdf:RDF>
      <cc:Work
         rdf:about="">
        <dc:format>image/svg+xml</dc:format>
        <dc:type
           rdf:resource="http://purl.org/dc/dcmitype/StillImage" />
      </cc:Work>
    </rdf:RDF>
  </metadata>
  <defs
     id="defs132" />
  <sodipodi:namedview
     pagecolor="#ffffff"
     bordercolor="#666666"
     borderopacity="1"
     objecttolerance="10"
     gridtolerance="10"
     guidetolerance="10"
     inkscape:pageopacity="0"
     inkscape:pageshadow="2"
     inkscape:window-width="1920"
     inkscape:window-height="1017"
     id="namedview130"
     showgrid="false"
     inkscape:zoom="0.42243437"
     inkscape:cx="279.33333"
     inkscape:cy="279.33333"
     inkscape:window-x="-4"
     inkscape:window-y="-4"
     inkscape:window-maximized="1"
     inkscape:current-layer="svg128" />
  <path
     d="m326.167969 311.921875c66.441406-73.933594 63.410156-186.9375-6.902344-257.203125-72.898437-72.898438-191.5-72.898438-264.5 0-71.648437 71.652344-73.191406 187.332031-3.476563 260.867188 69.710938 73.53125 185.308594 78.160156 260.675782 10.433593l90 90c1.875 1.890625 4.4375 2.9375 7.101562 2.902344 2.652344-.011719 5.199219-1.050781 7.101563-2.902344 1.871093-1.867187 2.921875-4.402343 2.921875-7.050781 0-2.644531-1.050782-5.179688-2.921875-7.046875zm-139.101563 42c-79.644531-.023437-148.1875-56.300781-163.710937-134.417969-15.519531-78.117187 26.296875-156.324218 99.886719-186.792968 73.585937-30.46875 158.449218-4.71875 202.691406 61.507812 44.246094 66.226562 35.550781 154.484375-20.765625 210.800781-31.277344 31.390625-73.789063 48.996094-118.101563 48.902344zm0 0"
     id="path126" />
  <path
     style="fill:#ffffff;stroke-width:2.36723161"
     d="m 478.1254,495.83577 -62.04576,-61.88398 -16.1757,12.28899 c -21.1296,16.05255 -63.21561,36.62228 -87.73812,42.8824 -40.28541,10.2841 -91.50095,9.80247 -129.41645,-1.217 C 78.379354,457.57288 7.4696439,368.7356 2.1275894,261.61917 -1.4974681,188.93118 24.688957,122.28559 76.616233,72.042339 108.68956,41.009166 144.50392,20.77593 187.94443,9.1477489 207.94371,3.7943298 215.8273,2.9754035 248.79605,2.8266393 281.329,2.6798426 289.65465,3.4403231 307.81814,8.2178274 412.34503,35.711339 485.2046,119.91045 495.97338,225.65673 c 6.25879,61.45961 -11.31606,122.84988 -49.88366,174.24721 l -12.13793,16.1757 61.88398,62.04576 c 40.66262,40.76889 61.884,63.71117 61.884,66.90232 0,5.89336 -7.019,12.69205 -13.10336,12.69205 -2.65324,0 -29.45809,-24.94761 -66.49101,-61.884 z M 306.46799,465.50024 c 55.38507,-15.89295 99.74735,-47.85266 129.14991,-93.04293 14.28574,-21.9565 22.50796,-40.21431 30.30073,-67.2841 4.56423,-15.85487 5.30854,-23.91948 5.20327,-56.37716 -0.13825,-42.65554 -3.61995,-60.07671 -18.39889,-92.06376 C 430.2132,108.01275 388.16264,65.987593 340.92072,44.997542 306.71522,29.799699 260.92842,22.826415 224.48154,27.263977 91.288927,43.480754 2.8612987,167.73696 31.449274,298.50791 c 16.159774,73.92022 73.354776,137.77418 145.355146,162.27823 26.7612,9.10768 46.03841,11.66692 80.27694,10.65756 23.15181,-0.68255 36.76012,-2.32025 49.38663,-5.94346 z"
     id="path136"
     inkscape:connector-curvature="0"
     transform="matrix(0.75016265,0,0,0.75016265,0,-0.04544)" />
</svg>
