<?xml version="1.0" encoding="UTF-8" standalone="no"?>
<!-- Generator: Adobe Illustrator 16.0.0, SVG Export Plug-In . SVG Version: 6.00 Build 0)  -->

<svg
   xmlns:dc="http://purl.org/dc/elements/1.1/"
   xmlns:cc="http://creativecommons.org/ns#"
   xmlns:rdf="http://www.w3.org/1999/02/22-rdf-syntax-ns#"
   xmlns:svg="http://www.w3.org/2000/svg"
   xmlns="http://www.w3.org/2000/svg"
   xmlns:sodipodi="http://sodipodi.sourceforge.net/DTD/sodipodi-0.dtd"
   xmlns:inkscape="http://www.inkscape.org/namespaces/inkscape"
   version="1.1"
   id="Capa_1"
   x="0px"
   y="0px"
   width="496.303px"
   height="496.303px"
   viewBox="0 0 496.303 496.303"
   style="enable-background:new 0 0 496.303 496.303;"
   xml:space="preserve"
   sodipodi:docname="tools.svg"
   inkscape:version="0.92.4 (5da689c313, 2019-01-14)"><metadata
   id="metadata135"><rdf:RDF><cc:Work
       rdf:about=""><dc:format>image/svg+xml</dc:format><dc:type
         rdf:resource="http://purl.org/dc/dcmitype/StillImage" /></cc:Work></rdf:RDF></metadata><defs
   id="defs133" /><sodipodi:namedview
   pagecolor="#ffffff"
   bordercolor="#666666"
   borderopacity="1"
   objecttolerance="10"
   gridtolerance="10"
   guidetolerance="10"
   inkscape:pageopacity="0"
   inkscape:pageshadow="2"
   inkscape:window-width="1920"
   inkscape:window-height="1017"
   id="namedview131"
   showgrid="false"
   inkscape:zoom="0.47551596"
   inkscape:cx="248.1515"
   inkscape:cy="248.1515"
   inkscape:window-x="-4"
   inkscape:window-y="-4"
   inkscape:window-maximized="1"
   inkscape:current-layer="Capa_1" />
<g
   id="g98">
	<g
   id="g96">
		<path
   d="M489.508,185.091c-6.703-5.131-15.041-5.319-23.069-4.014c-0.482,0.079-0.955,0.203-1.412,0.338    c-3.56-2.531-7.058-5.159-10.603-7.721c0.722-7.472,1.438-14.945,2.153-22.412c0.122-1.254,0.04-2.486-0.213-3.651    c0-2.188-0.803-4.431-2.783-6.355c-11.172-10.872-22.841-21.193-34.581-31.438c-0.441-1.168-1.147-2.308-2.199-3.354    L349.533,39.62c-1.833-3.583-5.738-6.167-10.684-4.71c-24.116,7.091-42.563,23.346-54.497,45.257    c-0.076,0.142-0.106,0.277-0.173,0.421c-2.062,2.704-2.777,6.454-0.584,10.177c8.252,14.005,16.904,28.584,26.431,42.441    c-25.202,20.749-51.501,40.339-78.025,59.699c4.712,3.999,9.044,8.186,13.208,12.454c25.61-18.72,50.98-37.674,75.309-57.714    c4.845,6.22,9.912,12.179,15.306,17.707c-20.795,22.472-41.295,45.341-61.922,68.113c4.505,3.648,9.359,7.111,14.838,10.242    c20.079-22.178,40.056-44.438,60.307-66.323c17.945,14.579,39.064,24.333,65.09,25.052c3.579,4.877,7.297,9.656,10.866,14.538    c-2.198,4.093-3.728,8.519-3.366,13.218c0.508,6.751,3.803,11.987,8.673,16.511c1.021,0.944,2.082,1.563,3.153,1.939    c1.965,1.274,4.448,1.849,7.271,1.133c16.717-4.202,32.286-13.889,43.945-26.54C493.428,213.736,503.173,195.56,489.508,185.091z     M440.444,231.182c-1.655-2.958-0.081-5.817,2.311-9.25c2.777-3.999,3.092-9.163-0.884-12.616    c-0.192-0.17-0.427-0.294-0.649-0.452c-4.621-6.461-9.659-12.614-14.244-19.108c-2.509-3.547-7.582-4.575-12.573-5.06    c-3.133-0.302-6.23-0.384-8.633-0.739c-8.186-1.195-16.376-2.785-24.003-6.104c-18.24-7.929-34.332-23.425-46.312-38.999    c-6.495-8.439-12.304-17.42-18.047-26.382c-2.823-4.41-5.596-8.856-8.287-13.35c-0.884-1.475-8.222-11.85-7.552-13    c8.709-15.026,21.09-26.02,37.05-32.197c3.655,3.631,7.307,7.264,10.963,10.895c13.99,13.914,27.944,27.871,42.051,41.665    c8.019,7.843,16.087,15.638,24.171,23.409c4.189,4.027,8.384,8.046,12.573,12.065c1.163,1.112,10.517,8.455,10.278,9.839    l-2.215,23.003c-0.056,0.586,0.062,1.138,0.087,1.716c-0.69,3.847,1.457,7.348,4.819,9.562    c6.479,4.271,12.385,9.349,18.874,13.624c5.652,3.722,11.74-4.093,17.682-0.67C478.971,208.574,442.638,235.109,440.444,231.182z"
   id="path90" />
		<path
   d="M198.375,329.902c-2.242-3.001-4.992-5.783-7.894-7.998c-5.794,5.759-11.596,11.502-17.499,17.139    c-0.025-0.046-0.036-0.097-0.056-0.143c-9.704-18.387-22.615-34.337-37.927-48.185c-0.485-0.62-0.927-1.255-1.409-1.864    c-0.043-0.056-0.084-0.086-0.125-0.137c7.564-6.068,15.213-12.045,22.919-17.95c-3.369-4.865-6.619-9.872-9.707-15.062    c-45.146,34.475-88.311,71.152-125.063,114.818c-0.733,0.873-1.211,1.777-1.564,2.681c-1.17,1.904-1.437,4.347-0.058,7.145    c11.893,24.11,30.138,43.976,54.781,55.325c1.747,0.807,3.404,0.99,4.933,0.787c1.909,0.279,3.989-0.107,6.048-1.549    c41.802-29.305,79.714-62.973,115.722-98.706c-0.186-0.289-0.389-0.584-0.541-0.884    C200.063,333.528,199.233,331.705,198.375,329.902z M78.991,417.727c-17.161-8.867-30.925-22.734-40.164-39.695    c24.407-28.36,51.567-53.74,80.176-77.546c1.201,1.031,2.267,2.153,3.438,3.21c12.444,16.184,24.024,33.012,33.233,51.282    c0.021,0.046,0.051,0.076,0.076,0.117C131.406,377.366,106.052,398.511,78.991,417.727z"
   id="path92" />
		<path
   d="M357.216,330.304c-23.922-24.532-50.267-46.936-76.037-69.857c-1.417-1.255-2.823-2.514-4.23-3.773    c-4.443-3.976-8.84-7.998-13.223-12.027c-10.639-9.793-21.023-19.807-30.98-30.206c-4.078-4.261-8.153-8.513-12.058-12.924    c-0.074-0.081-0.158-0.134-0.229-0.21c-0.432-0.455-0.886-0.838-1.358-1.166c-6.033-6.012-11.829-12.002-17.222-17.793    c-0.899-0.967-1.788-2.023-2.684-3.006c-8.699-9.501-17.336-19.51-25.687-29.935c-4.626-5.774-9.275-11.793-13.825-17.879    c-0.381-0.508-1.27-1.59-2.43-2.994c-1.617-1.955-5.928-7.175-7.993-10.141c7.495-26.248,1.915-50.251-15.51-66.224    C115.494,35.428,89.302,28.05,59.835,31.15c-5.657,0.591-9.839,4.606-10.644,10.217c-0.759,5.279,1.658,10.717,5.822,13.759    c1.556,2.113,3.735,3.697,6.34,4.583c12.063,4.105,24.709,9.727,26.997,20.256c1.643,7.551-6.967,15.028-9.646,17.136    c-6.769,5.33-16.816,7.539-25.136,5.433c-13.129-3.298-20.472-17.201-23.882-26.014c-0.218-2.971-1.414-5.75-3.486-8.003    c-2.605-2.833-6.269-4.456-10.044-4.456c-5.626,0-10.28,3.603-11.857,9.186L4.145,73.84c-0.114,0.374-0.198,0.696-0.208,0.8    c-8.272,30.643-3.413,58.516,13.695,78.467c10.618,12.386,25.283,18.931,42.406,18.931c8.292,0,17.097-1.563,25.743-4.55    c12.771,14.551,26.266,28.444,39.359,41.916l8.752,9.024c2.61,2.699,5.126,5.454,7.607,8.247    c5.74,6.452,11.252,13.16,16.915,20.111c0.467,0.579,0.929,1.135,1.404,1.716l5.901,7.236c0.536,0.65,1.155,1.188,1.82,1.666    c0.838,1.021,1.663,2.052,2.496,3.077c12.116,14.995,23.623,30.757,35.033,46.677c3.529,4.926,7.051,9.866,10.575,14.803    c5.617,7.865,11.253,15.716,16.963,23.49c36.432,49.581,76.07,95.852,135.163,119.77c2.468,0.995,4.753,0.721,6.632-0.26    c1.224-0.146,2.493-0.67,3.727-1.767c20.348-18.001,39.273-45.352,25.472-73.133C392.346,367.403,374.751,348.285,357.216,330.304    z M136.329,198.533c-14.165-14.582-28.812-29.65-42.317-45.359l-3.691-4.289l-5.22,2.178c-8.435,3.52-17.103,5.375-25.057,5.375    c-12.611,0-22.889-4.532-30.564-13.487c-15.404-17.966-15.163-40.502-12.334-56.038c7.513,16.488,18.938,27.31,32.624,30.745    c12.906,3.24,28.122-0.061,38.593-8.312c12.126-9.552,17.674-21.475,15.236-32.702C99.578,58.172,80.649,49.994,69.734,46.1    c22.018-0.69,40.05,5.256,53.476,17.564c19.032,17.445,13.545,42.825,10.301,52.94c-1.612,5.027,0.785,8.63,11.72,21.871    c0.937,1.132,1.661,1.996,1.96,2.402c4.654,6.218,9.412,12.37,14.145,18.283c7.487,9.354,15.219,18.306,23.003,26.964    c2.044,2.274,4.067,4.633,6.117,6.845c4.963,5.34,10.252,10.836,15.754,16.358c-0.739,1.3-1.811,2.864-3.077,4.57    c-7.031,9.448-20.947,23.798-27.944,28.437c-0.386-0.432-0.787-0.82-1.206-1.142l-2.064-2.526    c-0.323-0.396-0.65-0.797-0.973-1.193c-4.786-5.88-9.694-11.839-14.779-17.709c-3.583-4.134-7.239-8.231-11.055-12.185    L136.329,198.533z M370.343,449.352c-52.374-22.597-88.804-63.764-121.925-108.39c-7.396-9.963-14.627-20.093-21.835-30.229    c-3.514-4.946-7.025-9.893-10.545-14.823c-10.146-14.208-20.383-28.254-31.09-41.695c7.462-5.174,15.988-13.593,23.014-21.743    c3.666-4.253,6.87-8.382,9.328-11.944c0.967,1.021,1.889,2.075,2.867,3.09c10.717,11.09,22.021,21.667,33.53,32.05    c4.418,3.991,8.855,7.962,13.314,11.907c5.215,4.616,10.44,9.222,15.655,13.817c11.446,10.09,22.836,20.21,33.814,30.65    c20.129,19.139,40.776,38.593,57.676,60.732C395.042,400.166,399.312,423.094,370.343,449.352z"
   id="path94" />
	</g>
</g>
<g
   id="g100">
</g>
<g
   id="g102">
</g>
<g
   id="g104">
</g>
<g
   id="g106">
</g>
<g
   id="g108">
</g>
<g
   id="g110">
</g>
<g
   id="g112">
</g>
<g
   id="g114">
</g>
<g
   id="g116">
</g>
<g
   id="g118">
</g>
<g
   id="g120">
</g>
<g
   id="g122">
</g>
<g
   id="g124">
</g>
<g
   id="g126">
</g>
<g
   id="g128">
</g>
<path
   style="fill:#ffffff;stroke-width:2.10297894"
   d="M 348.2533,454.38961 C 301.54612,429.85758 276.83298,403.63327 194.35804,291.08388 171.25973,259.56279 147.37565,231.35941 114.7806,197.11531 l -28.432257,-29.8707 -14.678809,2.49968 c -12.641816,2.1528 -16.379286,2.00279 -26.932659,-1.081 C 20.491914,161.57871 3.574356,138.44628 1.7405536,109.87174 0.45429012,89.829023 4.2613081,71.547538 10.584079,67.404699 c 7.637373,-5.0042 13.16942,-1.327072 20.718362,13.771401 10.66202,21.32487 25.224396,28.03979 42.761456,19.71791 8.007944,-3.800015 15.523002,-13.022576 15.523002,-19.049993 0,-7.133479 -6.733519,-13.743198 -20.238959,-19.866858 C 54.50395,55.246573 48.459215,48.273636 50.481993,40.214244 c 1.660142,-6.614533 8.299115,-8.568272 27.538522,-8.104127 25.043845,0.604176 51.736895,13.341818 62.677855,29.909223 8.21325,12.436946 10.47625,22.3108 9.39393,40.9873 l -0.98942,17.07345 19.31223,24.18426 c 33.85771,42.39924 71.23336,80.42287 135.67563,138.02788 54.26464,48.50718 84.80984,81.77461 97.03561,105.68346 10.42247,20.38228 5.64606,42.40093 -14.07864,64.90081 -12.09207,13.79337 -15.1841,13.91396 -38.79441,1.51311 z m 32.97077,-15.27091 c 26.3682,-34.63692 6.46734,-65.9434 -104.47205,-164.34716 -10.98807,-9.74647 -28.71761,-26.26726 -39.39898,-36.71287 -11.48159,-11.22816 -20.12136,-18.16229 -21.13468,-16.96232 -0.9427,1.11634 -8.56259,9.23482 -16.93309,18.04107 l -15.21907,16.01135 8.02913,10.27589 c 4.41603,5.65171 17.8608,23.9978 29.87728,40.76906 44.1287,61.58994 71.80279,93.52921 99.87674,115.27003 16.8816,13.0733 43.33795,27.97852 48.39133,27.26315 2.26163,-0.32016 7.20415,-4.64384 10.98339,-9.6082 z M 189.66444,229.96074 c 20.60024,-21.34938 20.58916,-17.67712 0.12057,-39.8939 -9.88879,-10.73339 -26.57058,-30.39817 -37.07063,-43.69951 -18.17681,-23.02615 -19.01247,-24.53673 -17.45074,-31.54468 3.28881,-14.75788 1.78814,-32.024892 -3.61777,-41.626749 C 122.86785,57.604584 96.24628,44.169025 77.558361,45.898637 l -7.949761,0.73577 6.29961,2.693728 c 24.6872,10.556303 33.32235,32.031867 20.176599,50.179052 C 84.217348,115.88974 59.176982,121.88146 41.106419,112.66255 33.763672,108.91656 22.126252,96.09867 19.554816,88.92481 c -2.144707,-5.983356 -4.436028,1.97689 -4.316806,14.99696 0.20793,22.70781 11.464358,43.20805 27.490064,50.06499 8.772928,3.75368 24.628633,3.68846 37.395588,-0.15383 l 10.132031,-3.0493 13.860707,15.14142 c 7.62339,8.32779 22.85311,24.60483 33.84382,36.17122 10.99071,11.56638 23.64372,25.5249 28.1178,31.01894 4.47408,5.49403 8.75779,9.98915 9.51935,9.98915 0.76156,0 7.09174,-5.91463 14.06707,-13.14362 z"
   id="path137"
   inkscape:connector-curvature="0" /><path
   style="fill:#ffffff;stroke-width:2.10297894"
   d="m 429.84769,243.6301 c -6.97908,-7.45412 -8.64003,-13.26343 -5.873,-20.54128 1.89444,-4.98275 1.42086,-7.0095 -3.19383,-13.66851 -4.81718,-6.95119 -6.68575,-7.96728 -16.84812,-9.16167 -14.96411,-1.75874 -32.0706,-8.27933 -44.93401,-17.1278 l -10.35593,-7.12363 -30.1622,33.31327 -30.1622,33.31327 -5.78319,-4.11385 c -3.18076,-2.26263 -5.77149,-4.75918 -5.75718,-5.54789 0.0143,-0.78872 13.26308,-15.90344 29.44171,-33.58826 16.17863,-17.68482 29.41568,-32.89252 29.41568,-33.79487 0,-0.90236 -3.41288,-5.62784 -7.58418,-10.50107 l -7.5842,-8.86042 -8.95536,7.33824 c -16.03172,13.13679 -64.6951,49.58213 -66.20419,49.58213 -1.99291,0 -11.5601,-10.30424 -10.44809,-11.253 0.48649,-0.41508 10.34793,-7.6748 21.91432,-16.13272 11.56638,-8.45791 28.12734,-21.07206 36.80213,-28.03142 8.67479,-6.95938 16.20969,-12.99519 16.74422,-13.41293 0.53454,-0.41773 -0.35577,-2.84574 -1.97845,-5.39558 -1.62269,-2.54983 -8.14399,-13.04026 -14.49179,-23.31205 l -11.54144,-18.675997 4.90843,-9.252497 c 7.33178,-13.820542 29.00791,-33.090139 43.1927,-38.397349 l 11.87985,-4.444822 56.68882,55.238222 56.68881,55.238223 -1.16234,14.3595 c -1.06017,13.09736 -0.74382,14.70858 3.59932,18.3311 3.26531,2.72353 8.13468,3.99359 15.49523,4.04156 12.63154,0.0823 21.86261,6.76443 21.86261,15.82567 0,14.33738 -18.34757,34.84676 -40.5848,45.36679 -16.07521,7.60486 -18.24233,7.63861 -25.02933,0.38964 z m 23.78518,-17.49757 c 11.69984,-7.50777 25.00512,-21.51809 25.00512,-26.33015 0,-2.71714 -1.53678,-3.07362 -8.31411,-1.9286 -7.12182,1.20323 -9.66262,0.47687 -17.71766,-5.06516 -15.74633,-10.83375 -15.9203,-11.15707 -14.58343,-27.10324 l 1.19535,-14.2582 -48.77497,-48.27972 C 363.61693,76.61362 340.00472,54.607238 337.97159,54.264391 c -5.2758,-0.889654 -23.21162,12.035599 -31.24419,22.515781 -8.017,10.45987 -8.97492,7.529035 13.76466,42.114008 28.13613,42.79265 50.6546,60.04261 86.16846,66.00817 9.56953,1.60748 17.69808,3.29469 18.06345,3.74936 16.22256,20.18739 21.35416,31.20262 16.0604,34.47435 -2.92221,1.80602 -2.64577,9.4634 0.34163,9.4634 1.34454,0 6.97263,-2.90562 12.50687,-6.45693 z"
   id="path139"
   inkscape:connector-curvature="0" /><path
   style="fill:#ffffff;stroke-width:2.10297894"
   d="M 60.327383,425.85115 C 43.159288,414.38673 20.188597,385.64784 20.188597,375.63306 c 0,-1.22623 8.366038,-11.43709 18.591195,-22.6908 19.962426,-21.97047 54.345674,-53.43072 86.557748,-79.19929 l 19.9783,-15.98197 4.77281,5.8153 4.77282,5.81529 -11.00109,9.73305 -11.00108,9.73305 11.31946,12.34823 c 6.22571,6.79152 14.96317,17.96752 19.41659,24.83555 4.45342,6.86803 8.56755,12.95775 9.14251,13.53272 0.57497,0.57496 4.78927,-2.6104 9.36511,-7.07858 8.14552,-7.95389 8.40888,-8.04327 12.57926,-4.26912 2.34277,2.12016 4.25957,5.03511 4.25957,6.47764 0,3.01262 -32.58803,34.3364 -58.88341,56.59903 -32.03366,27.12088 -54.709326,43.17227 -60.989092,43.17227 -3.320544,0 -11.382192,-3.70965 -18.741915,-8.62428 z m 47.344247,-28.74009 c 13.99484,-11.25715 30.93552,-25.3168 37.64597,-31.24366 l 12.20081,-10.77612 -9.83331,-16.19679 c -11.73116,-19.32282 -26.0354,-39.00971 -28.34394,-39.00971 -5.61757,0 -80.225753,72.83662 -80.225753,78.3208 0,9.07193 30.695922,39.5077 39.74638,39.40952 1.850577,-0.02 14.815006,-9.24689 28.809843,-20.50404 z"
   id="path141"
   inkscape:connector-curvature="0" /></svg>